# Blender v3.3.1 OBJ File: 'osprey-r-all-sep.blend'
# www.blender.org
mtllib Left_Rudder.mtl
o Left_Rudder_Object_5.003
v -10.302515 4.632720 -2.512016
v -9.658955 4.632720 -2.538646
v -9.912569 3.215564 -2.549674
v -10.302835 3.215564 -2.512016
v -10.274561 4.697615 -2.512016
v -10.302515 4.632720 -2.512016
v -9.658955 4.632720 -2.485385
v -9.658955 4.720863 -2.485493
v -9.658955 4.720863 -2.512016
v -9.682516 3.215564 -2.463209
v -9.669884 3.215564 -2.464872
v -9.652063 4.632720 -2.486293
v -9.652090 4.720863 -2.486397
v -9.912569 3.215564 -2.474358
v -9.912569 3.215564 -2.512016
v -9.682516 3.215564 -2.512016
v -9.658113 3.215564 -2.469748
v -9.645639 4.632720 -2.488954
v -9.645693 4.720863 -2.489046
v -9.648005 3.215564 -2.477504
v -9.640123 4.632720 -2.493186
v -9.640200 4.720863 -2.493261
v -9.640249 3.215564 -2.487612
v -9.635891 4.632720 -2.498701
v -9.635984 4.720863 -2.498754
v -9.635372 3.215564 -2.499383
v -9.633230 4.632720 -2.505124
v -9.633333 4.720863 -2.505151
v -9.633707 3.215564 -2.512016
v -9.632324 4.632720 -2.512016
v -9.632429 4.720863 -2.512016
v -9.632324 4.632720 -2.512016
v -9.633707 3.215564 -2.512016
v -9.635372 3.215564 -2.524648
v -9.633230 4.632720 -2.518909
v -9.632429 4.720863 -2.512016
v -9.633333 4.720863 -2.518881
v -9.640249 3.215564 -2.536418
v -9.635893 4.632720 -2.525331
v -9.635984 4.720863 -2.525278
v -9.648005 3.215564 -2.546527
v -9.640125 4.632720 -2.530847
v -9.640200 4.720863 -2.530771
v -9.658113 3.215564 -2.554284
v -9.645639 4.632720 -2.535078
v -9.645693 4.720863 -2.534986
v -9.669884 3.215564 -2.559160
v -9.652063 4.632720 -2.537738
v -9.652090 4.720863 -2.537636
v -10.274561 4.697615 -2.512016
v -9.658955 4.720863 -2.538539
v -9.682516 3.215564 -2.560823
v -9.658955 4.720863 -2.512016
v -9.912569 3.215564 -2.512016
v -9.682516 3.215564 -2.512016
v -10.302835 3.215564 -2.512016
v -9.631767 3.215564 -2.560822
v -9.631767 3.215564 -2.463209
v -9.631767 4.632720 -2.485384
v -9.631767 4.632720 -2.538645
v -9.631767 4.720863 -2.538538
v -9.631767 4.720863 -2.485493
v -9.633707 3.215564 -2.512016
v -9.633707 3.215564 -2.512016
v -9.652090 4.720863 -2.486397
v -9.658113 3.215564 -2.469748
v -9.635372 3.215564 -2.524648
v -9.640200 4.720863 -2.530771
v -9.682516 3.215564 -2.560823
v -9.648005 3.215564 -2.477504
v -9.635984 4.720863 -2.525278
v -9.658955 4.720863 -2.538539
v -9.912569 3.215564 -2.549674
v -10.274561 4.697615 -2.512016
v -10.274561 4.697615 -2.512016
v -9.658955 4.720863 -2.485493
v -9.682516 3.215564 -2.463209
v -9.669884 3.215564 -2.464872
v -9.912569 3.215564 -2.474358
v -9.648005 3.215564 -2.546527
v -9.645693 4.720863 -2.489046
v -9.640200 4.720863 -2.493261
v -9.640249 3.215564 -2.487612
v -9.635984 4.720863 -2.498754
v -9.635372 3.215564 -2.499383
v -9.633333 4.720863 -2.505151
v -9.632429 4.720863 -2.512016
v -9.632429 4.720863 -2.512016
v -9.640249 3.215564 -2.536418
v -9.658113 3.215564 -2.554284
v -9.669884 3.215564 -2.559160
v -9.633333 4.720863 -2.518881
v -9.652090 4.720863 -2.537636
v -9.645693 4.720863 -2.534986
vt 0.901313 0.170153
vt 0.901313 0.170153
vt 0.908503 0.170153
vt 0.908503 0.170153
vt 0.908898 0.170153
vt 0.869220 0.170153
vt 0.869220 0.170153
vt 0.862030 0.170153
vt 0.862030 0.170153
vt 0.909266 0.170153
vt 0.909582 0.170153
vt 0.909825 0.170153
vt 0.909977 0.170153
vt 0.910029 0.170153
vt 0.860504 0.170153
vt 0.860556 0.170153
vt 0.860709 0.170153
vt 0.860951 0.170153
vt 0.861267 0.170153
vt 0.861635 0.170153
vt 0.925270 0.978746
vt 0.925270 0.978746
vt 0.925270 0.904779
vt 0.925270 0.904779
vt 0.925270 0.900178
vt 0.925270 0.900178
vt 0.881408 0.125860
vt 0.861293 0.125860
vt 0.869220 0.170153
vt 0.881418 0.170153
vt 0.889999 0.123831
vt 0.889125 0.125860
vt 0.909240 0.125860
vt 0.909240 0.123105
vt 0.909240 0.123105
vt 0.909240 0.123105
vt 0.889999 0.123831
vt 0.908503 0.170153
vt 0.908898 0.170153
vt 0.909455 0.125860
vt 0.909454 0.123105
vt 0.909266 0.170153
vt 0.909656 0.125860
vt 0.909654 0.123105
vt 0.909582 0.170153
vt 0.909828 0.125860
vt 0.909826 0.123105
vt 0.909825 0.170153
vt 0.909961 0.125860
vt 0.909958 0.123105
vt 0.909977 0.170153
vt 0.910044 0.125860
vt 0.910041 0.123105
vt 0.910029 0.170153
vt 0.910072 0.125860
vt 0.910069 0.123105
vt 0.860461 0.125860
vt 0.860504 0.170153
vt 0.860556 0.170153
vt 0.860489 0.125860
vt 0.860464 0.123105
vt 0.860493 0.123105
vt 0.860709 0.170153
vt 0.860573 0.125860
vt 0.860576 0.123105
vt 0.860951 0.170153
vt 0.860705 0.125860
vt 0.860707 0.123105
vt 0.861267 0.170153
vt 0.860877 0.125860
vt 0.860879 0.123105
vt 0.861635 0.170153
vt 0.861078 0.125860
vt 0.861079 0.123105
vt 0.880534 0.123831
vt 0.861293 0.123105
vt 0.862030 0.170153
vt 0.861293 0.123105
vt 0.861293 0.123105
vt 0.880534 0.123831
vt 0.909454 0.123105
vt 0.909654 0.123105
vt 0.909826 0.123105
vt 0.909958 0.123105
vt 0.910041 0.123105
vt 0.910069 0.123105
vt 0.860464 0.123105
vt 0.860493 0.123105
vt 0.860576 0.123105
vt 0.860707 0.123105
vt 0.860879 0.123105
vt 0.861079 0.123105
vt 0.889115 0.170153
vt 0.901313 0.170153
vn 0.0000 -1.0000 0.0000
vn -1.0000 0.0000 0.0000
vn -0.0608 0.0094 -0.9981
vn -0.0417 0.0149 -0.9990
vn -0.0596 0.0107 -0.9982
vn -0.0960 0.0000 -0.9954
vn -0.0423 0.0084 0.9991
vn -0.0615 0.0097 0.9981
vn -0.0396 0.0150 0.9991
vn -0.0393 0.0012 0.9992
vn -0.0373 0.9993 -0.0000
vn -0.0353 0.9994 0.0000
vn -0.0377 0.9993 0.0000
vn -0.0390 0.0163 0.9991
vn 0.2315 0.0118 0.9728
vn 0.3143 0.0099 0.9493
vn 0.3009 0.0012 0.9536
vn 0.4754 0.0077 0.8797
vn 0.5493 0.0062 0.8356
vn 0.5375 0.0012 0.8433
vn 0.6868 0.0042 0.7268
vn 0.7469 0.0031 0.6649
vn 0.7375 0.0012 0.6754
vn 0.8515 0.0015 0.5243
vn 0.8935 0.0008 0.4490
vn 0.8871 0.0012 0.4615
vn 0.9582 -0.0003 0.2861
vn 0.9793 -0.0006 0.2025
vn 0.9764 0.0012 0.2161
vn 0.9996 -0.0010 0.0282
vn 0.9983 -0.0009 -0.0580
vn 0.9990 0.0012 -0.0439
vn 0.9728 -0.0005 -0.2315
vn 0.9493 -0.0001 -0.3144
vn 0.9535 0.0012 -0.3012
vn 0.8797 0.0010 -0.4755
vn 0.8356 0.0017 -0.5493
vn 0.8431 0.0012 -0.5377
vn 0.7268 0.0036 -0.6869
vn 0.6650 0.0045 -0.7469
vn 0.6754 0.0012 -0.7375
vn 0.5242 0.0069 -0.8516
vn 0.4489 0.0079 -0.8935
vn 0.4615 0.0012 -0.8871
vn 0.2859 0.0109 -0.9582
vn 0.2024 0.0118 -0.9792
vn 0.2162 0.0012 -0.9764
vn -0.0437 0.0188 -0.9989
vn -0.0412 0.0084 -0.9991
vn -0.0343 0.0162 -0.9993
vn 0.0000 1.0000 0.0000
vn -0.0960 0.0000 0.9954
vn -0.0596 0.0107 0.9982
usemtl DefaultWhite
s off
f 14/1/1 15/2/1 16/3/1
f 14/1/1 16/3/1 77/4/1
f 77/4/1 16/3/1 78/5/1
f 54/6/1 73/7/1 69/8/1
f 54/6/1 69/8/1 55/9/1
f 78/5/1 16/3/1 66/10/1
f 66/10/1 16/3/1 70/11/1
f 70/11/1 16/3/1 83/12/1
f 83/12/1 16/3/1 85/13/1
f 85/13/1 16/3/1 63/14/1
f 64/15/1 55/9/1 67/16/1
f 67/16/1 55/9/1 89/17/1
f 89/17/1 55/9/1 80/18/1
f 80/18/1 55/9/1 90/19/1
f 90/19/1 55/9/1 91/20/1
f 91/20/1 55/9/1 69/8/1
f 57/21/2 58/22/2 59/23/2
f 57/21/2 59/23/2 60/24/2
f 61/25/2 60/24/2 59/23/2
f 61/25/2 59/23/2 62/26/2
s 1
f 1/27/3 2/28/4 3/29/5
f 1/27/3 3/29/5 4/30/6
f 5/31/7 6/32/8 7/33/9
f 5/31/7 7/33/9 8/34/10
f 76/35/11 9/36/12 74/37/13
f 7/33/9 10/38/14 11/39/15
f 7/33/9 11/39/15 12/40/16
f 8/34/10 7/33/9 12/40/16
f 8/34/10 12/40/16 13/41/17
f 12/40/16 11/39/15 17/42/18
f 12/40/16 17/42/18 18/43/19
f 13/41/17 12/40/16 18/43/19
f 13/41/17 18/43/19 19/44/20
f 18/43/19 17/42/18 20/45/21
f 18/43/19 20/45/21 21/46/22
f 19/44/20 18/43/19 21/46/22
f 19/44/20 21/46/22 22/47/23
f 21/46/22 20/45/21 23/48/24
f 21/46/22 23/48/24 24/49/25
f 22/47/23 21/46/22 24/49/25
f 22/47/23 24/49/25 25/50/26
f 24/49/25 23/48/24 26/51/27
f 24/49/25 26/51/27 27/52/28
f 25/50/26 24/49/25 27/52/28
f 25/50/26 27/52/28 28/53/29
f 27/52/28 26/51/27 29/54/30
f 27/52/28 29/54/30 30/55/31
f 28/53/29 27/52/28 30/55/31
f 28/53/29 30/55/31 31/56/32
f 32/57/31 33/58/30 34/59/33
f 32/57/31 34/59/33 35/60/34
f 36/61/32 32/57/31 35/60/34
f 36/61/32 35/60/34 37/62/35
f 35/60/34 34/59/33 38/63/36
f 35/60/34 38/63/36 39/64/37
f 37/62/35 35/60/34 39/64/37
f 37/62/35 39/64/37 40/65/38
f 39/64/37 38/63/36 41/66/39
f 39/64/37 41/66/39 42/67/40
f 40/65/38 39/64/37 42/67/40
f 40/65/38 42/67/40 43/68/41
f 42/67/40 41/66/39 44/69/42
f 42/67/40 44/69/42 45/70/43
f 43/68/41 42/67/40 45/70/43
f 43/68/41 45/70/43 46/71/44
f 45/70/43 44/69/42 47/72/45
f 45/70/43 47/72/45 48/73/46
f 46/71/44 45/70/43 48/73/46
f 46/71/44 48/73/46 49/74/47
f 1/27/3 75/75/48 51/76/49
f 1/27/3 51/76/49 2/28/4
f 3/29/5 2/28/4 52/77/50
f 53/78/12 72/79/11 50/80/13
f 9/36/12 76/35/11 65/81/51
f 9/36/12 65/81/51 81/82/51
f 9/36/12 81/82/51 82/83/51
f 9/36/12 82/83/51 84/84/51
f 9/36/12 84/84/51 86/85/51
f 9/36/12 86/85/51 87/86/51
f 53/78/12 88/87/51 92/88/51
f 53/78/12 92/88/51 71/89/51
f 53/78/12 71/89/51 68/90/51
f 53/78/12 68/90/51 94/91/51
f 53/78/12 94/91/51 93/92/51
f 53/78/12 93/92/51 72/79/11
f 48/73/46 47/72/45 52/77/50
f 48/73/46 52/77/50 2/28/4
f 49/74/47 48/73/46 2/28/4
f 49/74/47 2/28/4 51/76/49
f 6/32/8 56/93/52 79/94/53
f 6/32/8 79/94/53 7/33/9
f 10/38/14 7/33/9 79/94/53
