# Blender v3.3.1 OBJ File: 'osprey-r-all-sep.blend'
# www.blender.org
mtllib Left_Aileron.mtl
o Left_Aileron_Object_5.005
v -0.192737 3.163252 -6.303904
v -0.443472 3.162349 -3.792626
v -1.077904 3.143783 -3.871861
v -0.777563 3.171615 -6.313628
v -0.777563 3.171615 -6.313628
v -1.077904 3.143783 -3.871861
v -0.472903 3.352673 -3.794035
v -0.220869 3.351818 -6.305214
v -0.458187 3.257511 -3.793330
v -0.458187 3.257511 -3.793330
v -0.206803 3.257534 -6.304559
v -0.206803 3.257534 -6.304559
v -0.419661 3.169529 -3.788962
v -0.448073 3.353222 -3.790280
v -0.423932 3.347254 -3.786736
v -0.402127 3.335176 -3.783640
v -0.384143 3.317809 -3.781209
v -0.371205 3.296339 -3.779603
v -0.364196 3.272228 -3.778935
v -0.363592 3.247119 -3.779249
v -0.369436 3.222723 -3.780525
v -0.364196 3.272228 -3.778935
v -0.381329 3.200703 -3.782675
v -0.398460 3.182559 -3.785553
v -0.168858 3.170251 -6.303527
v -0.112616 3.271672 -6.303056
v -0.112189 3.246810 -6.302935
v -0.118209 3.222684 -6.302925
v -0.130267 3.200937 -6.303026
v -0.147544 3.183054 -6.303232
v -0.119464 3.295576 -6.303278
v -0.112616 3.271672 -6.303056
v -0.132264 3.316891 -6.303588
v -0.150144 3.334168 -6.303963
v -0.171886 3.346226 -6.304378
v -0.196010 3.352247 -6.304805
v -0.119464 3.295576 -6.303278
v -0.196010 3.352247 -6.304805
v -0.132264 3.316891 -6.303588
v -0.118209 3.222684 -6.302925
v -0.112189 3.246810 -6.302935
v -0.168858 3.170251 -6.303527
v -0.363592 3.247119 -3.779249
v -0.130267 3.200937 -6.303026
v -0.371205 3.296339 -3.779603
v -0.384143 3.317809 -3.781209
v -0.402127 3.335176 -3.783640
v -0.448073 3.353222 -3.790280
v -0.192737 3.163252 -6.303904
v -0.220869 3.351818 -6.305214
v -0.112616 3.271672 -6.303056
v -0.112616 3.271672 -6.303056
v -0.423932 3.347254 -3.786736
v -0.398460 3.182559 -3.785553
v -0.472903 3.352673 -3.794035
v -0.369436 3.222723 -3.780525
v -0.171886 3.346226 -6.304378
v -0.381329 3.200703 -3.782675
v -1.077904 3.143783 -3.871861
v -1.077904 3.143783 -3.871861
v -0.147544 3.183054 -6.303232
v -0.777563 3.171615 -6.313628
v -0.777563 3.171615 -6.313628
v -0.419661 3.169529 -3.788962
v -0.150144 3.334168 -6.303963
v -0.443472 3.162349 -3.792626
v -0.364196 3.272228 -3.778935
v -0.364196 3.272228 -3.778935
vt 0.040253 0.899760
vt 0.040119 0.899760
vt 0.040118 0.920261
vt 0.503825 0.677255
vt 0.503959 0.677255
vt 0.503826 0.697756
vt 0.503825 0.673872
vt 0.503859 0.673987
vt 0.503892 0.674325
vt 0.503919 0.674863
vt 0.503941 0.675563
vt 0.503954 0.676379
vt 0.040154 0.896493
vt 0.040119 0.896377
vt 0.040186 0.896831
vt 0.040214 0.897368
vt 0.040249 0.898885
vt 0.040235 0.898069
vt 0.503959 0.677255
vt 0.414683 0.684664
vt 0.417018 0.707087
vt 0.503826 0.697756
vt 0.040118 0.920261
vt 0.126926 0.929592
vt 0.129530 0.907205
vt 0.040253 0.899760
vt 0.414683 0.684664
vt 0.414549 0.684682
vt 0.417018 0.707087
vt 0.129395 0.907187
vt 0.129530 0.907205
vt 0.126926 0.929592
vt 0.414561 0.683788
vt 0.129644 0.906328
vt 0.129741 0.905510
vt 0.129815 0.904806
vt 0.129860 0.904264
vt 0.129873 0.903921
vt 0.129854 0.903801
vt 0.414141 0.681406
vt 0.414219 0.681740
vt 0.414090 0.681296
vt 0.414320 0.682275
vt 0.414437 0.682973
vt 0.414090 0.681296
vt 0.414141 0.681406
vt 0.503859 0.673987
vt 0.503825 0.673872
vt 0.414437 0.682973
vt 0.414561 0.683788
vt 0.503954 0.676379
vt 0.503941 0.675563
vt 0.414320 0.682275
vt 0.503919 0.674863
vt 0.414219 0.681740
vt 0.503892 0.674325
vt 0.129873 0.903921
vt 0.129854 0.903801
vt 0.040119 0.896377
vt 0.040154 0.896493
vt 0.129860 0.904264
vt 0.040186 0.896831
vt 0.129815 0.904806
vt 0.040214 0.897368
vt 0.129741 0.905510
vt 0.040235 0.898069
vt 0.129644 0.906328
vt 0.040249 0.898885
vn 0.0166 -0.0045 -0.9999
vn 0.0166 -0.0046 -0.9999
vn 0.0170 -0.0044 -0.9998
vn 0.0197 -0.9998 -0.0035
vn 0.0386 -0.9992 0.0035
vn 0.0087 -1.0000 -0.0048
vn -0.0141 -0.9998 -0.0131
vn -0.3155 0.9485 -0.0300
vn -0.3229 0.9460 -0.0289
vn -0.3042 0.9522 -0.0290
vn -0.2961 0.9547 -0.0300
vn -0.1245 -0.0119 0.9922
vn -0.1284 -0.0125 0.9916
vn -0.1236 -0.0118 0.9923
vn -0.1245 -0.0119 0.9921
vn -0.1483 -0.0158 0.9888
vn -0.1491 -0.0157 0.9887
vn -0.1491 -0.0158 0.9887
vn -0.1490 -0.0158 0.9887
vn -0.1490 -0.0159 0.9887
vn -0.1489 -0.0159 0.9887
vn -0.1489 -0.0160 0.9887
vn -0.1489 -0.0161 0.9887
vn -0.1490 -0.0161 0.9887
vn -0.1490 -0.0162 0.9887
vn 0.0171 -0.0044 -0.9998
vn 0.0167 -0.0046 -0.9999
vn 0.9893 0.1080 0.0986
vn 0.9834 -0.1525 0.0980
vn 0.9928 -0.0671 0.0988
vn 0.9764 0.1927 0.0973
vn 0.5883 -0.8066 0.0585
vn 0.3638 -0.9308 0.0360
vn 0.4407 -0.8966 0.0437
vn 0.6554 -0.7524 0.0652
vn 0.7760 -0.6259 0.0772
vn 0.8269 -0.5563 0.0823
vn 0.9108 -0.4028 0.0907
vn 0.9419 -0.3225 0.0938
vn 0.9279 0.3611 0.0924
vn 0.8938 0.4395 0.0890
vn 0.8035 0.5898 0.0805
vn 0.7504 0.6567 0.0747
vn 0.6244 0.7786 0.0621
vn 0.5558 0.8295 0.0553
vn 0.4025 0.9145 0.0399
vn 0.3230 0.9459 0.0320
vn 0.1531 0.9881 0.0149
vn 0.0678 0.9977 0.0064
usemtl DefaultWhite
s off
f 50/1/1 11/2/1 63/3/1
f 12/4/1 49/5/1 62/6/1
f 12/4/2 26/7/2 27/8/2
f 12/4/2 28/9/2 29/10/2
f 12/4/2 30/11/2 25/12/3
f 11/2/1 31/13/1 32/14/1
f 11/2/1 33/15/1 31/13/1
f 11/2/1 34/16/1 33/15/1
f 11/2/1 36/17/1 35/18/1
f 11/2/1 50/1/1 36/17/1
s 1
f 1/19/4 2/20/5 3/21/6
f 1/19/4 3/21/6 4/22/7
f 5/23/8 6/24/9 7/25/10
f 5/23/8 7/25/10 8/26/11
f 66/27/12 9/28/13 59/29/14
f 10/30/13 55/31/15 60/32/14
f 13/33/16 9/28/13 66/27/12
f 14/34/17 10/30/13 15/35/18
f 55/31/15 10/30/13 14/34/17
f 15/35/18 10/30/13 16/36/19
f 16/36/19 10/30/13 17/37/19
f 17/37/19 10/30/13 18/38/20
f 18/38/20 10/30/13 19/39/21
f 20/40/22 9/28/13 21/41/23
f 22/42/22 9/28/13 20/40/22
f 21/41/23 9/28/13 23/43/24
f 23/43/24 9/28/13 24/44/25
f 24/44/25 9/28/13 13/33/16
f 12/4/26 25/12/26 49/5/26
f 12/4/2 27/8/2 28/9/2
f 12/4/27 29/10/27 30/11/27
f 11/2/1 35/18/1 34/16/1
f 68/45/28 43/46/29 41/47/30
f 68/45/28 41/47/30 51/48/31
f 54/49/32 64/50/33 42/51/34
f 54/49/32 42/51/34 61/52/35
f 58/53/36 54/49/32 61/52/35
f 58/53/36 61/52/35 44/54/37
f 56/55/38 58/53/36 44/54/37
f 56/55/38 44/54/37 40/56/39
f 43/46/29 56/55/38 40/56/39
f 43/46/29 40/56/39 41/47/30
f 45/57/40 67/58/28 52/59/31
f 45/57/40 52/59/31 37/60/41
f 46/61/42 45/57/40 37/60/41
f 46/61/42 37/60/41 39/62/43
f 47/63/44 46/61/42 39/62/43
f 47/63/44 39/62/43 65/64/45
f 53/65/46 47/63/44 65/64/45
f 53/65/46 65/64/45 57/66/47
f 48/67/48 53/65/46 57/66/47
f 48/67/48 57/66/47 38/68/49
f 64/50/33 2/20/5 1/19/4
f 64/50/33 1/19/4 42/51/34
f 7/25/10 48/67/48 38/68/49
f 7/25/10 38/68/49 8/26/11
