# Blender v3.3.1 OBJ File: 'osprey-f.blend'
# www.blender.org
mtllib Left_Flap.mtl
o Left_Flap_Cube.018
v -0.459164 3.623139 -1.705393
v -0.734042 3.763742 -1.700401
v -0.824437 3.661654 -1.708465
v -0.427533 3.855395 -1.686885
v -0.391275 3.637587 -1.703203
v -0.662598 3.863262 -3.549275
v -0.747552 3.766586 -3.557191
v -0.355982 3.948874 -3.535960
v -0.319724 3.731067 -3.552278
v -0.390003 3.722086 -3.554274
v -0.407293 3.697349 -3.092054
v -0.424584 3.672613 -2.629834
v -0.441874 3.647876 -2.167614
v -0.790614 3.736370 -1.703259
v -0.829451 3.708669 -1.705672
v -0.843248 3.683000 -1.707467
v -0.442192 3.626751 -1.704846
v -0.425220 3.630363 -1.704298
v -0.408248 3.633975 -1.703751
v -0.768332 3.646253 -1.708554
v -0.682044 3.635799 -1.707908
v -0.575634 3.628645 -1.706773
v -0.510357 3.834078 -1.690426
v -0.590756 3.812137 -1.693903
v -0.666236 3.788929 -1.697252
v -0.673163 3.731317 -1.701586
v -0.612607 3.697807 -1.702845
v -0.549776 3.662243 -1.704203
v -0.400340 3.692039 -1.699124
v -0.409404 3.746491 -1.695044
v -0.418469 3.800943 -1.690965
v -0.716181 3.788623 -2.162619
v -0.698320 3.813503 -2.624838
v -0.680459 3.838382 -3.087056
v -0.805215 3.687887 -2.170646
v -0.785994 3.714120 -2.632827
v -0.766773 3.740353 -3.095009
v -0.409645 3.878765 -2.149154
v -0.391757 3.902135 -2.611423
v -0.373870 3.925504 -3.073691
v -0.373388 3.660957 -2.165472
v -0.355500 3.684327 -2.627740
v -0.337612 3.707697 -3.090009
v -0.346917 3.894423 -3.540040
v -0.337853 3.839971 -3.544119
v -0.328788 3.785518 -3.548198
v -0.717668 3.837752 -3.552080
v -0.754700 3.811800 -3.554446
v -0.766992 3.787426 -3.556207
v -0.372433 3.724331 -3.553775
v -0.354864 3.726576 -3.553276
v -0.337294 3.728822 -3.552777
v -0.692110 3.750670 -3.557293
v -0.607573 3.738861 -3.556683
v -0.503637 3.729788 -3.555597
v -0.439369 3.928933 -3.539452
v -0.520120 3.908420 -3.542880
v -0.595528 3.886747 -3.546179
v -0.713255 3.679891 -1.705688
v -0.774259 3.669828 -1.707236
v -0.700687 3.660801 -1.706675
v -0.622102 3.659089 -1.705570
v -0.669729 3.687216 -1.704526
v -0.727141 3.712317 -1.703816
v -0.764225 3.692254 -1.705703
v -0.502671 3.668540 -1.702930
v -0.467481 3.676136 -1.701690
v -0.433885 3.684042 -1.700418
v -0.559244 3.709522 -1.701011
v -0.509263 3.721729 -1.699087
v -0.459462 3.734087 -1.697087
v -0.613288 3.749506 -1.699121
v -0.550249 3.767022 -1.696493
v -0.484939 3.784093 -1.693756
v -0.364805 3.871053 -3.077771
v -0.382693 3.847683 -2.615502
v -0.400581 3.824313 -2.153234
v -0.355741 3.816601 -3.081850
v -0.373629 3.793231 -2.619582
v -0.391516 3.769861 -2.157313
v -0.346676 3.762149 -3.085929
v -0.364564 3.738779 -2.623661
v -0.382452 3.715409 -2.161392
v -0.824184 3.709107 -2.169652
v -0.810763 3.734452 -2.167866
v -0.772378 3.761715 -2.165464
v -0.805120 3.735213 -2.631837
v -0.792076 3.760234 -2.630059
v -0.754141 3.787060 -2.627670
v -0.786056 3.761319 -3.094021
v -0.773388 3.786017 -3.092252
v -0.735904 3.812406 -3.089875
v -0.390509 3.657687 -2.166007
v -0.407631 3.654417 -2.166543
v -0.424752 3.651146 -2.167078
v -0.372771 3.681398 -2.628264
v -0.390042 3.678469 -2.628787
v -0.407313 3.675541 -2.629310
v -0.355032 3.705110 -3.090520
v -0.372453 3.702523 -3.091032
v -0.389873 3.699936 -3.091542
v -0.557635 3.653930 -2.168979
v -0.663426 3.661564 -2.170102
v -0.749276 3.672357 -2.170739
v -0.539636 3.679217 -2.631185
v -0.644808 3.687330 -2.632295
v -0.730221 3.698461 -2.632923
v -0.521636 3.704502 -3.093391
v -0.626190 3.713095 -3.094489
v -0.711166 3.724566 -3.095108
v -0.648559 3.813382 -2.159484
v -0.573097 3.836208 -2.156147
v -0.492610 3.857792 -2.152682
v -0.630882 3.837837 -2.621715
v -0.555438 3.860278 -2.618392
v -0.474863 3.881506 -2.614939
v -0.613205 3.862292 -3.083947
v -0.537779 3.884349 -3.080636
v -0.457116 3.905220 -3.077195
vt 0.500000 0.509440
vt 0.500000 0.509440
vt 0.527018 0.509440
vt 0.500000 0.509440
vt 0.472982 0.509440
vt 0.453559 0.509440
vt 0.546441 0.509440
vt 0.500000 0.509440
vt 0.531250 0.509440
vt 0.468750 0.509440
vt 0.562500 0.509440
vt 0.437500 0.509440
vt 0.406250 0.509440
vt 0.375000 0.509440
vt 0.500000 0.509440
vt 0.437500 0.509440
vt 0.625000 0.509440
vt 0.562500 0.509440
vt 0.593750 0.509440
vt 0.435796 0.509440
vt 0.500000 0.509440
vt 0.500000 0.509440
vt 0.434092 0.509440
vt 0.500000 0.509440
vt 0.565908 0.509440
vt 0.564204 0.509440
vt 0.567612 0.509440
vt 0.371592 0.509440
vt 0.368184 0.509440
vt 0.432388 0.509440
vt 0.364775 0.509440
vt 0.430684 0.509440
vt 0.500000 0.509440
vt 0.569316 0.509440
vt 0.638633 0.509440
vt 0.635225 0.509440
vt 0.631816 0.509440
vt 0.628408 0.509440
vt 0.569316 0.585118
vt 0.500000 0.559892
vt 0.500000 0.585118
vt 0.569316 0.559892
vt 0.500000 0.534666
vt 0.430684 0.559892
vt 0.430684 0.585118
vt 0.430684 0.534666
vt 0.638633 0.610344
vt 0.569317 0.610344
vt 0.638633 0.585118
vt 0.638633 0.559892
vt 0.569316 0.534666
vt 0.638633 0.534666
vt 0.361367 0.509440
vt 0.361367 0.534666
vt 0.361367 0.559892
vt 0.361367 0.585118
vt 0.430684 0.610344
vt 0.361367 0.610344
vt 0.500000 0.610344
vt 0.561478 0.534667
vt 0.531064 0.559892
vt 0.531122 0.534666
vt 0.589846 0.534666
vt 0.561014 0.559892
vt 0.531122 0.585118
vt 0.588318 0.559892
vt 0.561479 0.585118
vt 0.500000 0.534666
vt 0.612407 0.534666
vt 0.609776 0.559892
vt 0.589846 0.585118
vt 0.612407 0.585118
vt 0.593750 0.610344
vt 0.562500 0.610344
vt 0.531250 0.610344
vt 0.500000 0.585118
vt 0.500000 0.610344
vt 0.500000 0.559892
vt 0.364775 0.534666
vt 0.368184 0.559892
vt 0.364775 0.559892
vt 0.368184 0.534666
vt 0.371592 0.559892
vt 0.368184 0.585118
vt 0.364775 0.585118
vt 0.371592 0.585118
vt 0.371592 0.534666
vt 0.375000 0.534666
vt 0.375000 0.559892
vt 0.375000 0.585118
vt 0.375000 0.610344
vt 0.371592 0.610344
vt 0.368184 0.610344
vt 0.364775 0.610344
vt 0.406250 0.534666
vt 0.437500 0.559892
vt 0.406250 0.559892
vt 0.437500 0.534666
vt 0.468750 0.559892
vt 0.437500 0.585118
vt 0.406250 0.585118
vt 0.468750 0.585118
vt 0.468750 0.534666
vt 0.468750 0.610344
vt 0.437500 0.610344
vt 0.406250 0.610344
vt 0.630795 0.534666
vt 0.622976 0.559892
vt 0.624505 0.534666
vt 0.635097 0.534666
vt 0.630331 0.559892
vt 0.624505 0.585118
vt 0.635039 0.559892
vt 0.630795 0.585118
vt 0.635097 0.585118
vt 0.635225 0.610344
vt 0.631816 0.610344
vt 0.628408 0.610344
vt 0.625000 0.610344
vn -0.0149 -0.0605 0.9981
vn -0.0156 -0.0629 0.9979
vn -0.0155 -0.0630 0.9979
vn -0.0164 -0.0654 0.9977
vn -0.0153 -0.0612 0.9980
vn -0.0157 -0.0639 0.9978
vn -0.0165 -0.0665 0.9977
vn -0.4176 -0.6843 0.5978
vn -0.8120 -0.1255 0.5700
vn -0.1505 -0.7497 0.6444
vn -0.5814 0.4593 0.6716
vn -0.0166 -0.0678 0.9976
vn -0.0511 -0.7493 0.6603
vn 0.0470 -0.7720 0.6339
vn -0.0177 -0.0692 0.9974
vn -0.0773 -0.7503 0.6565
vn -0.2983 0.6177 0.7277
vn -0.0181 -0.0703 0.9974
vn -0.3861 0.5837 0.7143
vn -0.0184 -0.0725 0.9972
vn -0.0206 -0.0757 0.9969
vn -0.0193 -0.0731 0.9971
vn -0.0196 -0.0749 0.9970
vn -0.0212 -0.0772 0.9968
vn -0.0211 -0.0762 0.9969
vn -0.0198 -0.0739 0.9971
vn -0.0219 -0.0775 0.9968
vn 0.1341 -0.7334 0.6664
vn 0.1340 -0.7338 0.6660
vn -0.0200 -0.0765 0.9969
vn 0.1340 -0.7343 0.6655
vn 0.6784 0.0584 0.7323
vn 0.6779 0.0581 0.7328
vn 0.6776 0.0580 0.7331
vn 0.4266 0.6491 0.6299
vn -0.2011 0.6390 0.7424
vn -0.2168 0.6370 0.7397
vn -0.2470 0.6314 0.7351
vn 0.9859 0.1607 0.0463
vn 0.4722 0.7164 -0.5136
vn 0.7173 0.1700 -0.6757
vn 0.5505 0.8324 0.0636
vn 0.5487 0.8336 0.0636
vn 0.5469 0.8348 0.0636
vn 0.6586 -0.4958 0.5661
vn 0.8198 -0.5727 0.0025
vn 0.8138 -0.5812 0.0018
vn 0.8078 -0.5895 0.0012
vn 0.7157 0.1699 -0.6774
vn 0.6714 -0.4511 -0.5880
vn 0.7162 0.1691 -0.6771
vn -0.7520 0.6592 0.0062
vn -0.9910 -0.1251 -0.0480
vn -0.9918 -0.1184 -0.0476
vn -0.5083 0.8608 0.0271
vn -0.7534 0.6575 0.0061
vn -0.9901 -0.1318 -0.0483
vn -0.5056 0.8623 0.0273
vn -0.7549 0.6558 0.0059
vn -0.5275 -0.8467 -0.0698
vn -0.3895 0.9204 0.0345
vn -0.3854 0.9221 0.0347
vn -0.5029 0.8639 0.0275
vn -0.3813 0.9238 0.0350
vn -0.3462 0.6670 -0.6597
vn -0.5527 0.5309 -0.6424
vn -0.7758 -0.0758 -0.6264
vn -0.5240 -0.8489 -0.0698
vn -0.3812 -0.6033 -0.7005
vn -0.5257 -0.8478 -0.0698
vn 0.1887 -0.9811 -0.0431
vn 0.1683 -0.9847 -0.0448
vn 0.1683 -0.9847 -0.0441
vn 0.1888 -0.9810 -0.0439
vn 0.1683 -0.9847 -0.0456
vn 0.1480 -0.9879 -0.0458
vn 0.1480 -0.9880 -0.0450
vn 0.1481 -0.9879 -0.0466
vn 0.1888 -0.9810 -0.0447
vn 0.0691 -0.9963 -0.0508
vn 0.0562 -0.9971 -0.0513
vn 0.0434 -0.9977 -0.0519
vn 0.0358 -0.6809 -0.7315
vn 0.1051 -0.6547 -0.7486
vn 0.1051 -0.6549 -0.7483
vn 0.1052 -0.6552 -0.7481
vn -0.0613 -0.9965 -0.0569
vn -0.1024 -0.9930 -0.0594
vn -0.0663 -0.9962 -0.0571
vn -0.0976 -0.9935 -0.0593
vn -0.1996 -0.9778 -0.0634
vn -0.1071 -0.9925 -0.0596
vn -0.0714 -0.9958 -0.0572
vn -0.2033 -0.9771 -0.0635
vn -0.1960 -0.9786 -0.0632
vn -0.1369 -0.6614 -0.7374
vn -0.0675 -0.6627 -0.7459
vn -0.0409 -0.6602 -0.7500
vn -0.2757 0.9604 0.0395
vn -0.3137 0.9487 0.0382
vn -0.3181 0.9473 0.0379
vn -0.2535 0.9665 0.0399
vn -0.2714 0.9617 0.0397
vn -0.3093 0.9502 0.0384
vn -0.2492 0.9676 0.0401
vn -0.2670 0.9629 0.0399
vn -0.2450 0.9687 0.0403
vn -0.1532 0.7303 -0.6658
vn -0.1683 0.7275 -0.6651
vn -0.2004 0.7203 -0.6641
vn -0.2539 0.7042 -0.6630
usemtl Fuselage
s 1
f 60/1/1 59/2/2 65/3/3
f 63/4/4 61/5/5 62/6/6
f 64/7/7 59/2/2 63/4/4
f 3/8/8 60/1/1 16/9/9
f 20/10/10 61/5/5 60/1/1
f 60/1/1 15/11/11 16/9/9
f 28/12/12 22/13/13 1/14/14
f 27/15/15 62/6/6 28/12/12
f 62/6/6 21/16/16 22/13/13
f 2/17/17 64/7/7 26/18/18
f 14/19/19 65/3/3 64/7/7
f 26/18/18 63/4/4 27/15/15
f 66/20/20 70/21/21 69/22/22
f 67/23/23 71/24/24 70/21/21
f 69/22/22 73/25/25 72/26/26
f 70/21/21 74/27/27 73/25/25
f 1/14/14 66/20/20 28/12/12
f 17/28/28 67/23/23 66/20/20
f 18/29/29 68/30/30 67/23/23
f 19/31/31 29/32/32 68/30/30
f 68/30/30 30/33/33 71/24/24
f 71/24/24 31/34/34 74/27/27
f 74/27/27 4/35/35 23/36/36
f 73/25/25 23/36/36 24/37/37
f 72/26/26 24/37/37 25/38/38
f 26/18/18 25/38/38 2/17/17
f 27/15/15 72/26/26 26/18/18
f 28/12/12 69/22/22 27/15/15
f 75/39/39 79/40/39 78/41/39
f 76/42/39 80/43/39 79/40/39
f 78/41/39 82/44/39 81/45/39
f 79/40/39 83/46/39 82/44/39
f 8/47/40 75/39/39 44/48/41
f 40/49/42 76/42/39 75/39/39
f 39/50/43 77/51/39 76/42/39
f 38/52/44 31/34/34 77/51/39
f 77/51/39 30/33/33 80/43/39
f 80/43/39 29/32/32 83/46/39
f 83/46/39 5/53/45 41/54/46
f 82/44/39 41/54/46 42/55/47
f 81/45/39 42/55/47 43/56/48
f 46/57/49 43/56/48 9/58/50
f 45/59/51 81/45/39 46/57/49
f 44/48/41 78/41/39 45/59/51
f 85/60/52 87/61/53 84/62/54
f 86/63/55 88/64/56 85/60/52
f 88/64/56 90/65/57 87/61/53
f 89/66/58 91/67/59 88/64/56
f 3/8/8 84/62/54 35/68/60
f 15/11/11 84/62/54 16/9/9
f 14/19/19 85/60/52 15/11/11
f 2/17/17 86/63/55 14/19/19
f 32/69/61 89/66/58 86/63/55
f 33/70/62 92/71/63 89/66/58
f 34/72/64 47/73/65 92/71/63
f 92/71/63 48/74/66 91/67/59
f 91/67/59 49/75/67 90/65/57
f 37/76/68 49/75/67 7/77/69
f 36/78/70 90/65/57 37/76/68
f 35/68/60 87/61/53 36/78/70
f 93/79/71 97/80/72 96/81/73
f 94/82/74 98/83/75 97/80/72
f 96/81/73 100/84/76 99/85/77
f 97/80/72 101/86/78 100/84/76
f 5/53/45 93/79/71 41/54/46
f 19/31/31 94/82/74 93/79/71
f 18/29/29 95/87/79 94/82/74
f 17/28/28 13/88/80 95/87/79
f 95/87/79 12/89/81 98/83/75
f 98/83/75 11/90/82 101/86/78
f 101/86/78 10/91/83 50/92/84
f 100/84/76 50/92/84 51/93/85
f 99/85/77 51/93/85 52/94/86
f 43/56/48 52/94/86 9/58/50
f 42/55/47 99/85/77 43/56/48
f 41/54/46 96/81/73 42/55/47
f 102/95/87 106/96/88 105/97/89
f 103/98/90 107/99/91 106/96/88
f 105/97/89 109/100/92 108/101/93
f 106/96/88 110/102/94 109/100/92
f 1/14/14 102/95/87 13/88/80
f 22/13/13 103/98/90 102/95/87
f 21/16/16 104/103/95 103/98/90
f 20/10/10 35/68/60 104/103/95
f 104/103/95 36/78/70 107/99/91
f 107/99/91 37/76/68 110/102/94
f 110/102/94 7/77/69 53/104/96
f 109/100/92 53/104/96 54/105/97
f 108/101/93 54/105/97 55/106/98
f 11/90/82 55/106/98 10/91/83
f 12/89/81 108/101/93 11/90/82
f 13/88/80 105/97/89 12/89/81
f 112/107/99 114/108/100 111/109/101
f 113/110/102 115/111/103 112/107/99
f 115/111/103 117/112/104 114/108/100
f 116/113/105 118/114/106 115/111/103
f 25/38/38 32/69/61 2/17/17
f 24/37/37 111/109/101 25/38/38
f 23/36/36 112/107/99 24/37/37
f 4/35/35 113/110/102 23/36/36
f 38/52/44 116/113/105 113/110/102
f 39/50/43 119/115/107 116/113/105
f 40/49/42 56/116/108 119/115/107
f 119/115/107 57/117/109 118/114/106
f 118/114/106 58/118/110 117/112/104
f 117/112/104 6/119/111 34/72/64
f 114/108/100 34/72/64 33/70/62
f 111/109/101 33/70/62 32/69/61
f 57/117/109 56/116/108 55/106/98
f 60/1/1 61/5/5 59/2/2
f 63/4/4 59/2/2 61/5/5
f 64/7/7 65/3/3 59/2/2
f 3/8/8 20/10/10 60/1/1
f 20/10/10 21/16/16 61/5/5
f 60/1/1 65/3/3 15/11/11
f 28/12/12 62/6/6 22/13/13
f 27/15/15 63/4/4 62/6/6
f 62/6/6 61/5/5 21/16/16
f 2/17/17 14/19/19 64/7/7
f 14/19/19 15/11/11 65/3/3
f 26/18/18 64/7/7 63/4/4
f 66/20/20 67/23/23 70/21/21
f 67/23/23 68/30/30 71/24/24
f 69/22/22 70/21/21 73/25/25
f 70/21/21 71/24/24 74/27/27
f 1/14/14 17/28/28 66/20/20
f 17/28/28 18/29/29 67/23/23
f 18/29/29 19/31/31 68/30/30
f 19/31/31 5/53/45 29/32/32
f 68/30/30 29/32/32 30/33/33
f 71/24/24 30/33/33 31/34/34
f 74/27/27 31/34/34 4/35/35
f 73/25/25 74/27/27 23/36/36
f 72/26/26 73/25/25 24/37/37
f 26/18/18 72/26/26 25/38/38
f 27/15/15 69/22/22 72/26/26
f 28/12/12 66/20/20 69/22/22
f 75/39/39 76/42/39 79/40/39
f 76/42/39 77/51/39 80/43/39
f 78/41/39 79/40/39 82/44/39
f 79/40/39 80/43/39 83/46/39
f 8/47/40 40/49/42 75/39/39
f 40/49/42 39/50/43 76/42/39
f 39/50/43 38/52/44 77/51/39
f 38/52/44 4/35/35 31/34/34
f 77/51/39 31/34/34 30/33/33
f 80/43/39 30/33/33 29/32/32
f 83/46/39 29/32/32 5/53/45
f 82/44/39 83/46/39 41/54/46
f 81/45/39 82/44/39 42/55/47
f 46/57/49 81/45/39 43/56/48
f 45/59/51 78/41/39 81/45/39
f 44/48/41 75/39/39 78/41/39
f 85/60/52 88/64/56 87/61/53
f 86/63/55 89/66/58 88/64/56
f 88/64/56 91/67/59 90/65/57
f 89/66/58 92/71/63 91/67/59
f 3/8/8 16/9/9 84/62/54
f 15/11/11 85/60/52 84/62/54
f 14/19/19 86/63/55 85/60/52
f 2/17/17 32/69/61 86/63/55
f 32/69/61 33/70/62 89/66/58
f 33/70/62 34/72/64 92/71/63
f 34/72/64 6/119/111 47/73/65
f 92/71/63 47/73/65 48/74/66
f 91/67/59 48/74/66 49/75/67
f 37/76/68 90/65/57 49/75/67
f 36/78/70 87/61/53 90/65/57
f 35/68/60 84/62/54 87/61/53
f 93/79/71 94/82/74 97/80/72
f 94/82/74 95/87/79 98/83/75
f 96/81/73 97/80/72 100/84/76
f 97/80/72 98/83/75 101/86/78
f 5/53/45 19/31/31 93/79/71
f 19/31/31 18/29/29 94/82/74
f 18/29/29 17/28/28 95/87/79
f 17/28/28 1/14/14 13/88/80
f 95/87/79 13/88/80 12/89/81
f 98/83/75 12/89/81 11/90/82
f 101/86/78 11/90/82 10/91/83
f 100/84/76 101/86/78 50/92/84
f 99/85/77 100/84/76 51/93/85
f 43/56/48 99/85/77 52/94/86
f 42/55/47 96/81/73 99/85/77
f 41/54/46 93/79/71 96/81/73
f 102/95/87 103/98/90 106/96/88
f 103/98/90 104/103/95 107/99/91
f 105/97/89 106/96/88 109/100/92
f 106/96/88 107/99/91 110/102/94
f 1/14/14 22/13/13 102/95/87
f 22/13/13 21/16/16 103/98/90
f 21/16/16 20/10/10 104/103/95
f 20/10/10 3/8/8 35/68/60
f 104/103/95 35/68/60 36/78/70
f 107/99/91 36/78/70 37/76/68
f 110/102/94 37/76/68 7/77/69
f 109/100/92 110/102/94 53/104/96
f 108/101/93 109/100/92 54/105/97
f 11/90/82 108/101/93 55/106/98
f 12/89/81 105/97/89 108/101/93
f 13/88/80 102/95/87 105/97/89
f 112/107/99 115/111/103 114/108/100
f 113/110/102 116/113/105 115/111/103
f 115/111/103 118/114/106 117/112/104
f 116/113/105 119/115/107 118/114/106
f 25/38/38 111/109/101 32/69/61
f 24/37/37 112/107/99 111/109/101
f 23/36/36 113/110/102 112/107/99
f 4/35/35 38/52/44 113/110/102
f 38/52/44 39/50/43 116/113/105
f 39/50/43 40/49/42 119/115/107
f 40/49/42 8/47/40 56/116/108
f 119/115/107 56/116/108 57/117/109
f 118/114/106 57/117/109 58/118/110
f 117/112/104 58/118/110 6/119/111
f 114/108/100 117/112/104 34/72/64
f 111/109/101 114/108/100 33/70/62
f 44/48/41 45/59/51 56/116/108
f 45/59/51 46/57/49 10/91/83
f 10/91/83 46/57/49 50/92/84
f 46/57/49 9/58/50 52/94/86
f 51/93/85 50/92/84 46/57/49
f 46/57/49 52/94/86 51/93/85
f 56/116/108 8/47/40 44/48/41
f 56/116/108 45/59/51 55/106/98
f 10/91/83 55/106/98 45/59/51
f 55/106/98 54/105/97 58/118/110
f 54/105/97 53/104/96 6/119/111
f 58/118/110 54/105/97 6/119/111
f 53/104/96 7/77/69 47/73/65
f 7/77/69 49/75/67 48/74/66
f 47/73/65 7/77/69 48/74/66
f 47/73/65 6/119/111 53/104/96
f 58/118/110 57/117/109 55/106/98
