# Blender v3.3.1 OBJ File: 'osprey-f.blend'
# www.blender.org
mtllib Left_Aileron.mtl
o Left_Aileron_Cube.010
v -0.318851 3.824040 -5.462868
v -0.589145 3.965795 -5.457863
v -0.668618 3.874570 -5.465629
v -0.282420 4.045323 -5.444748
v -0.246163 3.827515 -5.461066
v -0.661856 3.864403 -3.572326
v -0.746810 3.767727 -3.580242
v -0.355240 3.950015 -3.559011
v -0.318982 3.732207 -3.575329
v -0.389261 3.723226 -3.577326
v -0.643678 3.889751 -4.043711
v -0.625501 3.915099 -4.515094
v -0.607323 3.940447 -4.986478
v -0.727262 3.794437 -4.051589
v -0.707714 3.821148 -4.522935
v -0.688166 3.847859 -4.994281
v -0.337035 3.973842 -4.030446
v -0.318830 3.997669 -4.501880
v -0.300625 4.021496 -4.973314
v -0.300777 3.756034 -4.046763
v -0.282572 3.779861 -4.518198
v -0.264367 3.803688 -4.989632
v -0.366374 4.026767 -5.448192
v -0.447481 4.007692 -5.451571
v -0.522817 3.987565 -5.454819
v -0.613845 3.858135 -5.465744
v -0.531071 3.844960 -5.465169
v -0.429628 3.833957 -5.464134
v -0.300679 3.824909 -5.462418
v -0.282507 3.825778 -5.461967
v -0.264335 3.826646 -5.461516
v -0.642701 3.942161 -5.460614
v -0.677916 3.917971 -5.462931
v -0.688692 3.894901 -5.464657
v -0.406794 3.863504 -5.461681
v -0.468884 3.899113 -5.460325
v -0.528863 3.932910 -5.459059
v -0.273356 3.990871 -5.448828
v -0.264292 3.936419 -5.452908
v -0.255227 3.881967 -5.456986
v -0.336453 3.798837 -4.991482
v -0.354056 3.773633 -4.520097
v -0.371659 3.748430 -4.048711
v -0.346175 3.895563 -3.563091
v -0.337111 3.841111 -3.567170
v -0.328046 3.786659 -3.571249
v -0.716926 3.838893 -3.575131
v -0.753958 3.812941 -3.577497
v -0.766250 3.788567 -3.579258
v -0.371691 3.725471 -3.576826
v -0.354122 3.727717 -3.576327
v -0.336552 3.729961 -3.575828
v -0.691368 3.751810 -3.580344
v -0.606830 3.740001 -3.579734
v -0.502895 3.730929 -3.578649
v -0.438627 3.930073 -3.562503
v -0.519378 3.909560 -3.565931
v -0.594786 3.887887 -3.569230
v -0.576794 3.912806 -4.040627
v -0.501404 3.934093 -4.037340
v -0.420563 3.954247 -4.033925
v -0.558802 3.937726 -4.512023
v -0.483430 3.958626 -4.508750
v -0.402500 3.978420 -4.505347
v -0.540809 3.962645 -4.983421
v -0.465455 3.983159 -4.980161
v -0.384437 4.002594 -4.976769
v -0.484578 3.756686 -4.050020
v -0.587891 3.766241 -4.051093
v -0.671988 3.778392 -4.051694
v -0.466261 3.782443 -4.521391
v -0.568951 3.792480 -4.522451
v -0.652607 3.804973 -4.523045
v -0.447945 3.808200 -4.992762
v -0.550010 3.818720 -4.993810
v -0.633226 3.831554 -4.994394
v -0.318497 3.754133 -4.047250
v -0.336218 3.752232 -4.047737
v -0.353938 3.750330 -4.048224
v -0.300443 3.778304 -4.518672
v -0.318314 3.776747 -4.519147
v -0.336185 3.775190 -4.519622
v -0.282389 3.802475 -4.990095
v -0.300410 3.801262 -4.990557
v -0.318432 3.800050 -4.991020
v -0.746860 3.815150 -4.050608
v -0.734948 3.839198 -4.048855
v -0.698370 3.864710 -4.046502
v -0.727471 3.841733 -4.521958
v -0.715937 3.865456 -4.520214
v -0.679814 3.890526 -4.517873
v -0.708081 3.868317 -4.993308
v -0.696927 3.891713 -4.991573
v -0.661257 3.916344 -4.989243
v -0.564868 3.886668 -5.463014
v -0.621967 3.879957 -5.464472
v -0.614480 3.900150 -5.462999
v -0.580361 3.917228 -5.461195
v -0.523709 3.891641 -5.461916
v -0.476178 3.863786 -5.462951
v -0.551217 3.868627 -5.463971
v -0.340966 3.976775 -5.451521
v -0.315502 3.926763 -5.454853
v -0.289946 3.876714 -5.458185
v -0.407050 3.962520 -5.454162
v -0.366175 3.917181 -5.456757
v -0.324562 3.871562 -5.459360
v -0.470122 3.947948 -5.456693
v -0.416413 3.907821 -5.458586
v -0.360361 3.866767 -5.460505
v -0.291561 3.967044 -4.977394
v -0.309766 3.943217 -4.505959
v -0.327970 3.919389 -4.034525
v -0.282496 3.912592 -4.981473
v -0.300701 3.888765 -4.510038
v -0.318906 3.864938 -4.038604
v -0.273432 3.858140 -4.985552
v -0.291637 3.834313 -4.514118
v -0.309841 3.810486 -4.042684
vt 0.630748 0.635754
vt 0.621908 0.661163
vt 0.624371 0.635754
vt 0.635091 0.635754
vt 0.629959 0.661163
vt 0.620974 0.686573
vt 0.634992 0.661163
vt 0.629634 0.686573
vt 0.628408 0.610344
vt 0.612221 0.635754
vt 0.625000 0.610344
vt 0.631816 0.610344
vt 0.635225 0.610344
vt 0.638633 0.610344
vt 0.638633 0.635754
vt 0.638633 0.661163
vt 0.634952 0.686573
vt 0.638633 0.686573
vt 0.634946 0.711982
vt 0.629588 0.711982
vt 0.620840 0.711982
vt 0.606804 0.711982
vt 0.606990 0.686573
vt 0.608290 0.661163
vt 0.406250 0.635754
vt 0.437500 0.661163
vt 0.406250 0.661163
vt 0.437500 0.635754
vt 0.468750 0.661163
vt 0.437500 0.686573
vt 0.406250 0.686573
vt 0.468750 0.686573
vt 0.375000 0.610344
vt 0.375000 0.635754
vt 0.406250 0.610344
vt 0.437500 0.610344
vt 0.468750 0.635754
vt 0.468750 0.610344
vt 0.500000 0.635754
vt 0.500000 0.661163
vt 0.500000 0.686573
vt 0.500000 0.711982
vt 0.468750 0.711982
vt 0.437500 0.711982
vt 0.406250 0.711982
vt 0.375000 0.686573
vt 0.375000 0.711982
vt 0.375000 0.661163
vt 0.364775 0.635754
vt 0.368184 0.661163
vt 0.364775 0.661163
vt 0.368184 0.635754
vt 0.371592 0.661163
vt 0.368184 0.686573
vt 0.364775 0.686573
vt 0.371592 0.686573
vt 0.361367 0.610344
vt 0.361367 0.635754
vt 0.364775 0.610344
vt 0.368184 0.610344
vt 0.371592 0.635754
vt 0.371592 0.610344
vt 0.371592 0.711982
vt 0.368184 0.711982
vt 0.364775 0.711982
vt 0.361367 0.686573
vt 0.361367 0.711982
vt 0.361367 0.661163
vt 0.561432 0.635754
vt 0.531018 0.661163
vt 0.531117 0.635754
vt 0.589713 0.635754
vt 0.560643 0.661163
vt 0.530977 0.686573
vt 0.587250 0.661163
vt 0.560318 0.686573
vt 0.500000 0.610344
vt 0.562500 0.610344
vt 0.531250 0.610344
vt 0.593750 0.610344
vt 0.586316 0.686573
vt 0.586182 0.711982
vt 0.560271 0.711982
vt 0.530971 0.711982
vt 0.499850 0.711982
vt 0.499443 0.711982
vt 0.472894 0.711982
vt 0.542519 0.711982
vt 0.525839 0.711982
vt 0.498914 0.711982
vt 0.453808 0.711982
vt 0.553216 0.711982
vt 0.441181 0.711982
vt 0.498514 0.711982
vt 0.567467 0.711982
vt 0.499629 0.711982
vt 0.564747 0.711982
vt 0.499954 0.711982
vt 0.434045 0.711982
vt 0.498932 0.711982
vt 0.560287 0.711982
vt 0.436049 0.711982
vt 0.638633 0.711982
vt 0.569316 0.711982
vt 0.500000 0.711982
vt 0.432382 0.711982
vt 0.430684 0.711982
vt 0.569316 0.686573
vt 0.500000 0.661163
vt 0.500000 0.686573
vt 0.569316 0.661163
vt 0.500000 0.635754
vt 0.430684 0.661163
vt 0.430684 0.686573
vt 0.430684 0.635754
vt 0.569316 0.635754
vt 0.569316 0.610344
vt 0.500000 0.610344
vt 0.430684 0.610344
vn -0.2583 0.9652 0.0404
vn -0.2957 0.9545 0.0392
vn -0.3003 0.9531 0.0389
vn -0.2366 0.9708 0.0407
vn -0.2538 0.9664 0.0406
vn -0.2911 0.9559 0.0394
vn -0.2323 0.9718 0.0409
vn -0.2494 0.9675 0.0408
vn -0.2349 0.6364 0.7348
vn -0.3728 0.9272 0.0354
vn -0.2877 0.6233 0.7271
vn -0.2054 0.6414 0.7392
vn -0.1886 0.6429 0.7424
vn 0.4321 0.6445 0.6308
vn 0.5541 0.8300 0.0636
vn 0.5559 0.8288 0.0636
vn -0.2281 0.9728 0.0411
vn 0.5576 0.8276 0.0636
vn -0.1402 0.7342 -0.6643
vn -0.1560 0.7321 -0.6631
vn -0.1869 0.7260 -0.6618
vn -0.2412 0.7112 -0.6603
vn -0.3640 0.9307 0.0360
vn -0.3685 0.9290 0.0357
vn -0.0817 -0.9950 -0.0575
vn -0.1217 -0.9907 -0.0600
vn -0.0870 -0.9945 -0.0577
vn -0.1168 -0.9914 -0.0598
vn -0.2145 -0.9746 -0.0637
vn -0.1267 -0.9901 -0.0602
vn -0.0923 -0.9940 -0.0579
vn -0.2183 -0.9738 -0.0638
vn 0.0092 -0.7712 0.6365
vn 0.0178 -0.9984 -0.0528
vn -0.0675 -0.7514 0.6563
vn -0.0920 -0.7514 0.6535
vn -0.2107 -0.9755 -0.0636
vn -0.1621 -0.7489 0.6426
vn -0.5205 -0.8510 -0.0696
vn -0.5187 -0.8521 -0.0696
vn -0.5170 -0.8532 -0.0696
vn -0.3745 -0.6031 -0.7043
vn -0.1476 -0.6585 -0.7380
vn -0.0813 -0.6616 -0.7454
vn -0.0565 -0.6605 -0.7487
vn -0.0074 -0.9985 -0.0538
vn 0.0007 -0.6756 -0.7373
vn 0.0052 -0.9986 -0.0533
vn 0.1078 -0.9931 -0.0468
vn 0.0880 -0.9949 -0.0484
vn 0.0880 -0.9950 -0.0476
vn 0.1078 -0.9930 -0.0475
vn 0.0880 -0.9949 -0.0492
vn 0.0683 -0.9964 -0.0492
vn 0.0683 -0.9965 -0.0485
vn 0.0683 -0.9964 -0.0500
vn 0.6410 -0.5248 0.5601
vn 0.7957 -0.6057 -0.0002
vn 0.0762 -0.7450 0.6627
vn 0.0762 -0.7452 0.6624
vn 0.1079 -0.9930 -0.0483
vn 0.0763 -0.7455 0.6622
vn 0.0503 -0.6597 -0.7498
vn 0.0505 -0.6597 -0.7498
vn 0.0505 -0.6597 -0.7499
vn 0.7835 -0.6214 -0.0014
vn 0.6541 -0.4787 -0.5857
vn 0.7896 -0.6136 -0.0008
vn -0.7580 0.6522 0.0056
vn -0.9870 -0.1529 -0.0492
vn -0.9881 -0.1457 -0.0489
vn -0.4972 0.8672 0.0278
vn -0.7597 0.6503 0.0054
vn -0.9859 -0.1601 -0.0496
vn -0.4943 0.8688 0.0280
vn -0.7614 0.6483 0.0052
vn -0.4112 -0.6866 0.5997
vn -0.5894 0.4553 0.6673
vn -0.8099 -0.1476 0.5677
vn -0.3802 0.5889 0.7132
vn -0.4913 0.8705 0.0283
vn -0.3379 0.6744 -0.6565
vn -0.5602 0.5283 -0.6380
vn -0.7720 -0.0980 -0.6281
vn 0.0175 0.0654 -0.9977
vn 0.0181 0.0674 -0.9976
vn 0.0178 0.0661 -0.9977
vn 0.0189 0.0703 -0.9973
vn 0.0180 0.0675 -0.9976
vn 0.0188 0.0695 -0.9974
vn 0.0182 0.0683 -0.9975
vn 0.0202 0.0733 -0.9971
vn 0.0191 0.0716 -0.9973
vn 0.0199 0.0725 -0.9972
vn 0.0232 0.0782 -0.9967
vn 0.0224 0.0773 -0.9968
vn 0.0226 0.0774 -0.9967
vn 0.0229 0.0780 -0.9967
vn 0.0220 0.0770 -0.9968
vn 0.0213 0.0755 -0.9969
vn 0.0216 0.0759 -0.9969
vn 0.0209 0.0755 -0.9969
vn 0.4778 0.7121 -0.5145
vn 0.7174 0.1700 -0.6756
vn 0.7173 0.1700 -0.6757
vn 0.0225 0.0778 -0.9967
vn 0.7171 0.1699 -0.6760
vn 0.9859 0.1607 0.0462
vn 0.6773 0.0578 0.7335
vn 0.6784 0.0590 0.7323
vn 0.6789 0.0582 0.7319
usemtl Fuselage
s 1
f 60/1/1 62/2/2 59/3/3
f 61/4/4 63/5/5 60/1/1
f 63/5/5 65/6/6 62/2/2
f 64/7/7 66/8/8 63/5/5
f 58/9/9 11/10/10 6/11/11
f 57/12/12 59/3/3 58/9/9
f 56/13/13 60/1/1 57/12/12
f 8/14/14 61/4/4 56/13/13
f 17/15/15 64/7/7 61/4/4
f 18/16/16 67/17/17 64/7/7
f 19/18/18 23/19/19 67/17/17
f 67/17/17 24/20/20 66/8/8
f 66/8/8 25/21/21 65/6/6
f 65/6/6 2/22/22 13/23/23
f 62/2/2 13/23/23 12/24/24
f 59/3/3 12/24/24 11/10/10
f 68/25/25 72/26/26 71/27/27
f 69/28/28 73/29/29 72/26/26
f 71/27/27 75/30/30 74/31/31
f 72/26/26 76/32/32 75/30/30
f 10/33/33 68/25/25 43/34/34
f 55/35/35 69/28/28 68/25/25
f 54/36/36 70/37/37 69/28/28
f 53/38/38 14/39/39 70/37/37
f 70/37/37 15/40/40 73/29/29
f 73/29/29 16/41/41 76/32/32
f 76/32/32 3/42/42 26/43/43
f 75/30/30 26/43/43 27/44/44
f 74/31/31 27/44/44 28/45/45
f 41/46/46 28/45/45 1/47/47
f 42/48/48 74/31/31 41/46/46
f 43/34/34 71/27/27 42/48/48
f 77/49/49 81/50/50 80/51/51
f 78/52/52 82/53/53 81/50/50
f 80/51/51 84/54/54 83/55/55
f 81/50/50 85/56/56 84/54/54
f 9/57/57 77/49/49 20/58/58
f 52/59/59 78/52/52 77/49/49
f 51/60/60 79/61/61 78/52/52
f 50/62/62 43/34/34 79/61/61
f 79/61/61 42/48/48 82/53/53
f 82/53/53 41/46/46 85/56/56
f 85/56/56 1/47/47 29/63/63
f 84/54/54 29/63/63 30/64/64
f 83/55/55 30/64/64 31/65/65
f 22/66/66 31/65/65 5/67/67
f 21/68/68 83/55/55 22/66/66
f 20/58/58 80/51/51 21/68/68
f 87/69/69 89/70/70 86/71/71
f 88/72/72 90/73/73 87/69/69
f 90/73/73 92/74/74 89/70/70
f 91/75/75 93/76/76 90/73/73
f 7/77/77 86/71/71 14/39/39
f 48/78/78 86/71/71 49/79/79
f 47/80/80 87/69/69 48/78/78
f 6/11/11 88/72/72 47/80/80
f 11/10/10 91/75/75 88/72/72
f 12/24/24 94/81/81 91/75/75
f 13/23/23 32/82/82 94/81/81
f 94/81/81 33/83/83 93/76/76
f 93/76/76 34/84/84 92/74/74
f 16/41/41 34/84/84 3/42/42
f 15/40/40 92/74/74 16/41/41
f 14/39/39 89/70/70 15/40/40
f 96/85/85 95/86/86 101/87/87
f 98/88/88 95/86/86 97/89/89
f 101/87/87 99/90/90 100/91/91
f 3/42/42 96/85/85 26/43/43
f 33/83/83 96/85/85 34/84/84
f 26/43/43 101/87/87 27/44/44
f 2/22/22 98/88/88 32/82/82
f 37/92/92 99/90/90 98/88/88
f 32/82/82 97/89/89 33/83/83
f 28/45/45 35/93/93 1/47/47
f 27/44/44 100/91/91 28/45/45
f 100/91/91 36/94/94 35/93/93
f 102/95/95 106/96/96 105/97/97
f 103/98/98 107/99/99 106/96/96
f 105/97/97 109/100/100 108/101/101
f 106/96/96 110/102/102 109/100/100
f 4/103/103 102/95/95 23/19/19
f 38/104/104 103/98/98 102/95/95
f 39/105/105 104/106/106 103/98/98
f 40/107/107 31/65/65 104/106/106
f 104/106/106 30/64/64 107/99/99
f 107/99/99 29/63/63 110/102/102
f 110/102/102 1/47/47 35/93/93
f 109/100/100 35/93/93 36/94/94
f 108/101/101 36/94/94 37/92/92
f 25/21/21 37/92/92 2/22/22
f 24/20/20 108/101/101 25/21/21
f 23/19/19 105/97/97 24/20/20
f 111/108/108 115/109/108 114/110/108
f 112/111/108 116/112/108 115/109/108
f 114/110/108 118/113/108 117/114/108
f 115/109/108 119/115/108 118/113/108
f 4/103/103 111/108/108 38/104/104
f 19/18/18 112/111/108 111/108/108
f 18/16/16 113/116/108 112/111/108
f 17/15/15 44/117/109 113/116/108
f 113/116/108 45/118/110 116/112/108
f 116/112/108 46/119/111 119/115/108
f 119/115/108 9/57/57 20/58/58
f 118/113/108 20/58/58 21/68/68
f 117/114/108 21/68/68 22/66/66
f 40/107/107 22/66/66 5/67/67
f 39/105/105 117/114/108 40/107/107
f 38/104/104 114/110/108 39/105/105
f 46/119/111 45/118/110 10/33/33
f 60/1/1 63/5/5 62/2/2
f 61/4/4 64/7/7 63/5/5
f 63/5/5 66/8/8 65/6/6
f 64/7/7 67/17/17 66/8/8
f 58/9/9 59/3/3 11/10/10
f 57/12/12 60/1/1 59/3/3
f 56/13/13 61/4/4 60/1/1
f 8/14/14 17/15/15 61/4/4
f 17/15/15 18/16/16 64/7/7
f 18/16/16 19/18/18 67/17/17
f 19/18/18 4/103/103 23/19/19
f 67/17/17 23/19/19 24/20/20
f 66/8/8 24/20/20 25/21/21
f 65/6/6 25/21/21 2/22/22
f 62/2/2 65/6/6 13/23/23
f 59/3/3 62/2/2 12/24/24
f 68/25/25 69/28/28 72/26/26
f 69/28/28 70/37/37 73/29/29
f 71/27/27 72/26/26 75/30/30
f 72/26/26 73/29/29 76/32/32
f 10/33/33 55/35/35 68/25/25
f 55/35/35 54/36/36 69/28/28
f 54/36/36 53/38/38 70/37/37
f 53/38/38 7/77/77 14/39/39
f 70/37/37 14/39/39 15/40/40
f 73/29/29 15/40/40 16/41/41
f 76/32/32 16/41/41 3/42/42
f 75/30/30 76/32/32 26/43/43
f 74/31/31 75/30/30 27/44/44
f 41/46/46 74/31/31 28/45/45
f 42/48/48 71/27/27 74/31/31
f 43/34/34 68/25/25 71/27/27
f 77/49/49 78/52/52 81/50/50
f 78/52/52 79/61/61 82/53/53
f 80/51/51 81/50/50 84/54/54
f 81/50/50 82/53/53 85/56/56
f 9/57/57 52/59/59 77/49/49
f 52/59/59 51/60/60 78/52/52
f 51/60/60 50/62/62 79/61/61
f 50/62/62 10/33/33 43/34/34
f 79/61/61 43/34/34 42/48/48
f 82/53/53 42/48/48 41/46/46
f 85/56/56 41/46/46 1/47/47
f 84/54/54 85/56/56 29/63/63
f 83/55/55 84/54/54 30/64/64
f 22/66/66 83/55/55 31/65/65
f 21/68/68 80/51/51 83/55/55
f 20/58/58 77/49/49 80/51/51
f 87/69/69 90/73/73 89/70/70
f 88/72/72 91/75/75 90/73/73
f 90/73/73 93/76/76 92/74/74
f 91/75/75 94/81/81 93/76/76
f 7/77/77 49/79/79 86/71/71
f 48/78/78 87/69/69 86/71/71
f 47/80/80 88/72/72 87/69/69
f 6/11/11 11/10/10 88/72/72
f 11/10/10 12/24/24 91/75/75
f 12/24/24 13/23/23 94/81/81
f 13/23/23 2/22/22 32/82/82
f 94/81/81 32/82/82 33/83/83
f 93/76/76 33/83/83 34/84/84
f 16/41/41 92/74/74 34/84/84
f 15/40/40 89/70/70 92/74/74
f 14/39/39 86/71/71 89/70/70
f 96/85/85 97/89/89 95/86/86
f 98/88/88 99/90/90 95/86/86
f 101/87/87 95/86/86 99/90/90
f 3/42/42 34/84/84 96/85/85
f 33/83/83 97/89/89 96/85/85
f 26/43/43 96/85/85 101/87/87
f 2/22/22 37/92/92 98/88/88
f 37/92/92 36/94/94 99/90/90
f 32/82/82 98/88/88 97/89/89
f 28/45/45 100/91/91 35/93/93
f 27/44/44 101/87/87 100/91/91
f 100/91/91 99/90/90 36/94/94
f 102/95/95 103/98/98 106/96/96
f 103/98/98 104/106/106 107/99/99
f 105/97/97 106/96/96 109/100/100
f 106/96/96 107/99/99 110/102/102
f 4/103/103 38/104/104 102/95/95
f 38/104/104 39/105/105 103/98/98
f 39/105/105 40/107/107 104/106/106
f 40/107/107 5/67/67 31/65/65
f 104/106/106 31/65/65 30/64/64
f 107/99/99 30/64/64 29/63/63
f 110/102/102 29/63/63 1/47/47
f 109/100/100 110/102/102 35/93/93
f 108/101/101 109/100/100 36/94/94
f 25/21/21 108/101/101 37/92/92
f 24/20/20 105/97/97 108/101/101
f 23/19/19 102/95/95 105/97/97
f 111/108/108 112/111/108 115/109/108
f 112/111/108 113/116/108 116/112/108
f 114/110/108 115/109/108 118/113/108
f 115/109/108 116/112/108 119/115/108
f 4/103/103 19/18/18 111/108/108
f 19/18/18 18/16/16 112/111/108
f 18/16/16 17/15/15 113/116/108
f 17/15/15 8/14/14 44/117/109
f 113/116/108 44/117/109 45/118/110
f 116/112/108 45/118/110 46/119/111
f 119/115/108 46/119/111 9/57/57
f 118/113/108 119/115/108 20/58/58
f 117/114/108 118/113/108 21/68/68
f 40/107/107 117/114/108 22/66/66
f 39/105/105 114/110/108 117/114/108
f 38/104/104 111/108/108 114/110/108
f 45/118/110 44/117/109 56/13/13
f 44/117/109 8/14/14 56/13/13
f 56/13/13 57/12/12 55/35/35
f 45/118/110 56/13/13 55/35/35
f 57/12/12 58/9/9 55/35/35
f 58/9/9 6/11/11 54/36/36
f 6/11/11 47/80/80 53/38/38
f 47/80/80 48/78/78 7/77/77
f 53/38/38 47/80/80 7/77/77
f 48/78/78 49/79/79 7/77/77
f 53/38/38 54/36/36 6/11/11
f 54/36/36 55/35/35 58/9/9
f 55/35/35 10/33/33 45/118/110
f 10/33/33 50/62/62 46/119/111
f 50/62/62 51/60/60 46/119/111
f 51/60/60 52/59/59 46/119/111
f 52/59/59 9/57/57 46/119/111
