# Blender v3.3.1 OBJ File: 'osprey-f.blend'
# www.blender.org
mtllib Right_Flap.mtl
o Right_Flap_Cube.011
v 0.457788 3.623139 -1.693013
v 0.732667 3.763742 -1.688020
v 0.823061 3.661654 -1.696085
v 0.426158 3.855395 -1.674505
v 0.389900 3.637587 -1.690823
v 0.661222 3.863262 -3.536895
v 0.746176 3.766586 -3.544811
v 0.354606 3.948874 -3.523580
v 0.318348 3.731067 -3.539898
v 0.388627 3.722086 -3.541894
v 0.405918 3.697349 -3.079674
v 0.423208 3.672613 -2.617454
v 0.440498 3.647876 -2.155233
v 0.789239 3.736370 -1.690879
v 0.828075 3.708669 -1.693292
v 0.841872 3.683000 -1.695087
v 0.440816 3.626751 -1.692466
v 0.423844 3.630363 -1.691918
v 0.406872 3.633975 -1.691370
v 0.766956 3.646253 -1.696174
v 0.680668 3.635799 -1.695528
v 0.574258 3.628645 -1.694393
v 0.508982 3.834078 -1.678046
v 0.589380 3.812137 -1.681523
v 0.664861 3.788929 -1.684872
v 0.671788 3.731317 -1.689206
v 0.611231 3.697807 -1.690464
v 0.548401 3.662243 -1.691823
v 0.398964 3.692039 -1.686744
v 0.408029 3.746491 -1.682664
v 0.417093 3.800943 -1.678585
v 0.714805 3.788622 -2.150239
v 0.696944 3.813502 -2.612458
v 0.679083 3.838383 -3.074677
v 0.803840 3.687887 -2.158266
v 0.784618 3.714120 -2.620447
v 0.765397 3.740353 -3.082629
v 0.408270 3.878765 -2.136774
v 0.390382 3.902135 -2.599043
v 0.372494 3.925505 -3.061311
v 0.372012 3.660957 -2.153092
v 0.354124 3.684327 -2.615360
v 0.336236 3.707697 -3.077629
v 0.345541 3.894422 -3.527659
v 0.336477 3.839971 -3.531739
v 0.327412 3.785518 -3.535818
v 0.716292 3.837752 -3.539700
v 0.753324 3.811800 -3.542066
v 0.765616 3.787426 -3.543827
v 0.371058 3.724331 -3.541395
v 0.353488 3.726576 -3.540896
v 0.335918 3.728822 -3.540396
v 0.690734 3.750670 -3.544913
v 0.606197 3.738861 -3.544303
v 0.502261 3.729788 -3.543217
v 0.437993 3.928933 -3.527072
v 0.518744 3.908420 -3.530500
v 0.594152 3.886747 -3.533798
v 0.711880 3.679891 -1.693308
v 0.772883 3.669828 -1.694856
v 0.762849 3.692254 -1.693323
v 0.725765 3.712317 -1.691436
v 0.668353 3.687216 -1.692146
v 0.620726 3.659089 -1.693190
v 0.699311 3.660801 -1.694295
v 0.501296 3.668540 -1.690550
v 0.557869 3.709522 -1.688631
v 0.611913 3.749506 -1.686741
v 0.466105 3.676136 -1.689310
v 0.507888 3.721728 -1.686707
v 0.548873 3.767023 -1.684113
v 0.432509 3.684042 -1.688038
v 0.458086 3.734087 -1.684706
v 0.483564 3.784093 -1.681376
v 0.363429 3.871053 -3.065391
v 0.354365 3.816600 -3.069470
v 0.345300 3.762149 -3.073550
v 0.381317 3.847683 -2.603122
v 0.372253 3.793231 -2.607202
v 0.363188 3.738779 -2.611281
v 0.399205 3.824313 -2.140853
v 0.390141 3.769861 -2.144933
v 0.381076 3.715409 -2.149012
v 0.822808 3.709106 -2.157272
v 0.803744 3.735213 -2.619457
v 0.784680 3.761319 -3.081641
v 0.809387 3.734452 -2.155485
v 0.790700 3.760234 -2.617679
v 0.772012 3.786017 -3.079872
v 0.771002 3.761715 -2.153084
v 0.752765 3.787060 -2.615289
v 0.734528 3.812406 -3.077495
v 0.389133 3.657687 -2.153627
v 0.371395 3.681398 -2.615884
v 0.353656 3.705109 -3.078140
v 0.406255 3.654417 -2.154162
v 0.388666 3.678469 -2.616407
v 0.371077 3.702523 -3.078651
v 0.423376 3.651146 -2.154698
v 0.405937 3.675541 -2.616930
v 0.388497 3.699936 -3.079162
v 0.556259 3.653930 -2.156599
v 0.538260 3.679217 -2.618805
v 0.520261 3.704503 -3.081011
v 0.662050 3.661565 -2.157722
v 0.643432 3.687330 -2.619915
v 0.624815 3.713095 -3.082109
v 0.747900 3.672357 -2.158358
v 0.728845 3.698461 -2.620543
v 0.709790 3.724565 -3.082728
v 0.647184 3.813383 -2.147104
v 0.629507 3.837837 -2.609335
v 0.611830 3.862292 -3.071567
v 0.571721 3.836208 -2.143767
v 0.554062 3.860278 -2.606012
v 0.536403 3.884349 -3.068256
v 0.491234 3.857792 -2.140302
v 0.473487 3.881506 -2.602559
v 0.455740 3.905220 -3.064815
vt 0.500000 0.509440
vt 0.500000 0.509440
vt 0.472982 0.509440
vt 0.546054 0.509440
vt 0.527018 0.509440
vt 0.500000 0.509440
vt 0.453946 0.509440
vt 0.500000 0.509440
vt 0.468750 0.509440
vt 0.562500 0.509440
vt 0.531250 0.509440
vt 0.437500 0.509440
vt 0.625000 0.509440
vt 0.593750 0.509440
vt 0.558633 0.509440
vt 0.406250 0.509440
vt 0.441367 0.509440
vt 0.375000 0.509440
vt 0.500000 0.509440
vt 0.436183 0.509440
vt 0.500000 0.509440
vt 0.434092 0.509440
vt 0.500000 0.509440
vt 0.565908 0.509440
vt 0.500000 0.509440
vt 0.432388 0.509440
vt 0.567612 0.509440
vt 0.371592 0.509440
vt 0.563818 0.509440
vt 0.628408 0.509440
vt 0.631816 0.509440
vt 0.635225 0.509440
vt 0.638633 0.509440
vt 0.569316 0.509440
vt 0.500000 0.509440
vt 0.430684 0.509440
vt 0.364775 0.509440
vt 0.361367 0.509440
vt 0.368184 0.509440
vt 0.569316 0.585118
vt 0.500000 0.559892
vt 0.569316 0.559892
vt 0.500000 0.585118
vt 0.430684 0.559892
vt 0.500000 0.534666
vt 0.569316 0.534666
vt 0.430684 0.534666
vt 0.638633 0.610344
vt 0.638633 0.585118
vt 0.569316 0.610344
vt 0.500000 0.610344
vt 0.430684 0.585118
vt 0.430684 0.610344
vt 0.361367 0.585118
vt 0.361367 0.559892
vt 0.361367 0.534666
vt 0.638633 0.534666
vt 0.638633 0.559892
vt 0.531064 0.559892
vt 0.561478 0.534666
vt 0.531122 0.534666
vt 0.531122 0.585118
vt 0.561014 0.559892
vt 0.589846 0.534666
vt 0.561479 0.585118
vt 0.588318 0.559892
vt 0.500000 0.534666
vt 0.500000 0.559892
vt 0.500000 0.585118
vt 0.531250 0.610344
vt 0.562500 0.610344
vt 0.589846 0.585118
vt 0.593750 0.610344
vt 0.612407 0.585118
vt 0.609776 0.559892
vt 0.612407 0.534666
vt 0.364775 0.534666
vt 0.368184 0.559892
vt 0.368184 0.534666
vt 0.364775 0.559892
vt 0.368184 0.585118
vt 0.371592 0.559892
vt 0.371592 0.534666
vt 0.371592 0.585118
vt 0.364775 0.585118
vt 0.364775 0.610344
vt 0.368184 0.610344
vt 0.371592 0.610344
vt 0.375000 0.610344
vt 0.375000 0.585118
vt 0.375000 0.559892
vt 0.375000 0.534666
vt 0.406250 0.534666
vt 0.437500 0.559892
vt 0.437500 0.534666
vt 0.406250 0.559892
vt 0.437500 0.585118
vt 0.468750 0.559892
vt 0.468750 0.534666
vt 0.468750 0.585118
vt 0.406250 0.585118
vt 0.406250 0.610344
vt 0.437500 0.610344
vt 0.468750 0.610344
vt 0.500000 0.610344
vt 0.622976 0.559892
vt 0.630795 0.534666
vt 0.624505 0.534666
vt 0.624505 0.585118
vt 0.630331 0.559892
vt 0.635097 0.534666
vt 0.630795 0.585118
vt 0.635039 0.559892
vt 0.625000 0.610344
vt 0.628408 0.610344
vt 0.631816 0.610344
vt 0.635097 0.585118
vt 0.635225 0.610344
vt 0.361367 0.610344
vn 0.0149 -0.0605 0.9981
vn 0.0156 -0.0629 0.9979
vn 0.0153 -0.0612 0.9980
vn 0.0165 -0.0665 0.9977
vn 0.0155 -0.0630 0.9979
vn 0.0164 -0.0654 0.9977
vn 0.0157 -0.0639 0.9978
vn 0.4176 -0.6843 0.5978
vn 0.1505 -0.7497 0.6444
vn 0.5814 0.4593 0.6716
vn 0.8120 -0.1255 0.5700
vn 0.0773 -0.7503 0.6565
vn 0.2983 0.6177 0.7277
vn 0.3861 0.5837 0.7143
vn 0.0181 -0.0703 0.9974
vn 0.0511 -0.7493 0.6603
vn 0.0166 -0.0678 0.9976
vn -0.0470 -0.7720 0.6339
vn 0.0177 -0.0692 0.9974
vn 0.0184 -0.0725 0.9972
vn 0.0206 -0.0757 0.9969
vn 0.0196 -0.0749 0.9970
vn 0.0193 -0.0731 0.9971
vn 0.0211 -0.0762 0.9969
vn 0.0212 -0.0772 0.9968
vn 0.0200 -0.0765 0.9969
vn 0.0219 -0.0775 0.9968
vn -0.1341 -0.7334 0.6664
vn 0.0198 -0.0738 0.9971
vn 0.2470 0.6314 0.7351
vn 0.2168 0.6370 0.7397
vn 0.2011 0.6390 0.7425
vn -0.4266 0.6491 0.6299
vn -0.6776 0.0580 0.7331
vn -0.6779 0.0581 0.7328
vn -0.6784 0.0584 0.7323
vn -0.1340 -0.7343 0.6655
vn -0.6586 -0.4958 0.5661
vn -0.1340 -0.7338 0.6660
vn -0.9859 0.1607 0.0463
vn -0.4722 0.7164 -0.5136
vn -0.5505 0.8324 0.0636
vn -0.7173 0.1700 -0.6757
vn -0.7162 0.1691 -0.6771
vn -0.7157 0.1699 -0.6774
vn -0.8078 -0.5895 0.0012
vn -0.8138 -0.5812 0.0018
vn -0.8198 -0.5727 0.0025
vn -0.5469 0.8348 0.0636
vn -0.5487 0.8336 0.0636
vn 0.9910 -0.1251 -0.0480
vn 0.7520 0.6592 0.0062
vn 0.9918 -0.1184 -0.0476
vn 0.9901 -0.1318 -0.0483
vn 0.7534 0.6575 0.0061
vn 0.5083 0.8608 0.0271
vn 0.7549 0.6558 0.0059
vn 0.5056 0.8623 0.0273
vn 0.5275 -0.8467 -0.0698
vn 0.5257 -0.8478 -0.0698
vn 0.5240 -0.8489 -0.0698
vn 0.7758 -0.0758 -0.6264
vn 0.5527 0.5309 -0.6424
vn 0.5029 0.8639 0.0275
vn 0.3462 0.6670 -0.6597
vn 0.3813 0.9238 0.0350
vn 0.3854 0.9221 0.0347
vn 0.3895 0.9204 0.0345
vn -0.1887 -0.9811 -0.0431
vn -0.1683 -0.9847 -0.0448
vn -0.1888 -0.9810 -0.0439
vn -0.1683 -0.9847 -0.0441
vn -0.1480 -0.9879 -0.0458
vn -0.1683 -0.9847 -0.0456
vn -0.1888 -0.9810 -0.0447
vn -0.1481 -0.9879 -0.0466
vn -0.1480 -0.9880 -0.0450
vn -0.1052 -0.6552 -0.7481
vn -0.1051 -0.6549 -0.7483
vn -0.1051 -0.6547 -0.7486
vn -0.0358 -0.6809 -0.7315
vn -0.0433 -0.9977 -0.0519
vn -0.0562 -0.9971 -0.0513
vn -0.0691 -0.9963 -0.0508
vn 0.0613 -0.9965 -0.0569
vn 0.1024 -0.9930 -0.0594
vn 0.0976 -0.9935 -0.0593
vn 0.0663 -0.9962 -0.0571
vn 0.1071 -0.9925 -0.0596
vn 0.1996 -0.9778 -0.0634
vn 0.1960 -0.9786 -0.0632
vn 0.2033 -0.9771 -0.0635
vn 0.0714 -0.9958 -0.0572
vn 0.0409 -0.6602 -0.7500
vn 0.0675 -0.6627 -0.7459
vn 0.1369 -0.6614 -0.7374
vn 0.3812 -0.6033 -0.7005
vn 0.3137 0.9487 0.0382
vn 0.2757 0.9604 0.0395
vn 0.3181 0.9473 0.0379
vn 0.3093 0.9502 0.0384
vn 0.2714 0.9617 0.0397
vn 0.2535 0.9665 0.0399
vn 0.2670 0.9629 0.0399
vn 0.2492 0.9676 0.0401
vn 0.2539 0.7042 -0.6630
vn 0.2004 0.7203 -0.6641
vn 0.1683 0.7275 -0.6651
vn 0.2450 0.9687 0.0403
vn 0.1532 0.7303 -0.6658
vn -0.6714 -0.4511 -0.5880
usemtl Fuselage
s 1
f 60/1/1 59/2/2 65/3/3
f 62/4/4 59/2/2 61/5/5
f 65/3/3 63/6/6 64/7/7
f 3/8/8 60/1/1 20/9/9
f 15/10/10 60/1/1 16/11/11
f 20/9/9 65/3/3 21/12/12
f 2/13/13 62/4/4 14/14/14
f 26/15/15 63/6/6 62/4/4
f 14/14/14 61/5/5 15/10/10
f 22/16/16 28/17/17 1/18/18
f 21/12/12 64/7/7 22/16/16
f 64/7/7 27/19/19 28/17/17
f 66/20/20 70/21/21 69/22/22
f 67/23/23 71/24/24 70/21/21
f 69/22/22 73/25/25 72/26/26
f 70/21/21 74/27/27 73/25/25
f 1/18/18 66/20/20 17/28/28
f 28/17/17 67/23/23 66/20/20
f 27/19/19 68/29/29 67/23/23
f 26/15/15 25/30/30 68/29/29
f 68/29/29 24/31/31 71/24/24
f 71/24/24 23/32/32 74/27/27
f 74/27/27 4/33/33 31/34/34
f 73/25/25 31/34/34 30/35/35
f 72/26/26 30/35/35 29/36/36
f 19/37/37 29/36/36 5/38/38
f 18/39/39 72/26/26 19/37/37
f 17/28/28 69/22/22 18/39/39
f 75/40/40 79/41/40 78/42/40
f 76/43/40 80/44/40 79/41/40
f 78/42/40 82/45/40 81/46/40
f 79/41/40 83/47/40 82/45/40
f 8/48/41 75/40/40 40/49/42
f 44/50/43 76/43/40 75/40/40
f 45/51/44 77/52/40 76/43/40
f 46/53/45 43/54/46 77/52/40
f 77/52/40 42/55/47 80/44/40
f 80/44/40 41/56/48 83/47/40
f 83/47/40 5/38/38 29/36/36
f 82/45/40 29/36/36 30/35/35
f 81/46/40 30/35/35 31/34/34
f 38/57/49 31/34/34 4/33/33
f 39/58/50 81/46/40 38/57/49
f 40/49/42 78/42/40 39/58/50
f 85/59/51 87/60/52 84/61/53
f 86/62/54 88/63/55 85/59/51
f 88/63/55 90/64/56 87/60/52
f 89/65/57 91/66/58 88/63/55
f 3/8/8 84/61/53 16/11/11
f 35/67/59 85/59/51 84/61/53
f 36/68/60 86/62/54 85/59/51
f 37/69/61 49/70/62 86/62/54
f 49/70/62 89/65/57 86/62/54
f 48/71/63 92/72/64 89/65/57
f 47/73/65 34/74/66 92/72/64
f 92/72/64 33/75/67 91/66/58
f 91/66/58 32/76/68 90/64/56
f 90/64/56 2/13/13 14/14/14
f 87/60/52 14/14/14 15/10/10
f 84/61/53 15/10/10 16/11/11
f 93/77/69 97/78/70 96/79/71
f 94/80/72 98/81/73 97/78/70
f 96/79/71 100/82/74 99/83/75
f 97/78/70 101/84/76 100/82/74
f 5/38/38 93/77/69 19/37/37
f 41/56/48 94/80/72 93/77/69
f 42/55/47 95/85/77 94/80/72
f 43/54/46 52/86/78 95/85/77
f 95/85/77 51/87/79 98/81/73
f 98/81/73 50/88/80 101/84/76
f 101/84/76 10/89/81 11/90/82
f 100/82/74 11/90/82 12/91/83
f 99/83/75 12/91/83 13/92/84
f 17/28/28 13/92/84 1/18/18
f 18/39/39 99/83/75 17/28/28
f 19/37/37 96/79/71 18/39/39
f 102/93/85 106/94/86 105/95/87
f 103/96/88 107/97/89 106/94/86
f 105/95/87 109/98/90 108/99/91
f 106/94/86 110/100/92 109/98/90
f 1/18/18 102/93/85 22/16/16
f 13/92/84 103/96/88 102/93/85
f 12/91/83 104/101/93 103/96/88
f 11/90/82 55/102/94 104/101/93
f 104/101/93 54/103/95 107/97/89
f 107/97/89 53/104/96 110/100/92
f 110/100/92 7/105/97 37/69/61
f 109/98/90 37/69/61 36/68/60
f 108/99/91 36/68/60 35/67/59
f 20/9/9 35/67/59 3/8/8
f 21/12/12 108/99/91 20/9/9
f 22/16/16 105/95/87 21/12/12
f 112/106/98 114/107/99 111/108/100
f 113/109/101 115/110/102 112/106/98
f 115/110/102 117/111/103 114/107/99
f 116/112/104 118/113/105 115/110/102
f 32/76/68 25/30/30 2/13/13
f 33/75/67 111/108/100 32/76/68
f 34/74/66 112/106/98 33/75/67
f 6/114/106 113/109/101 34/74/66
f 58/115/107 116/112/104 113/109/101
f 57/116/108 119/117/109 116/112/104
f 56/118/110 40/49/42 119/117/109
f 119/117/109 39/58/50 118/113/105
f 118/113/105 38/57/49 117/111/103
f 117/111/103 4/33/33 23/32/32
f 114/107/99 23/32/32 24/31/31
f 111/108/100 24/31/31 25/30/30
f 45/51/44 56/118/110 55/102/94
f 60/1/1 61/5/5 59/2/2
f 62/4/4 63/6/6 59/2/2
f 65/3/3 59/2/2 63/6/6
f 3/8/8 16/11/11 60/1/1
f 15/10/10 61/5/5 60/1/1
f 20/9/9 60/1/1 65/3/3
f 2/13/13 26/15/15 62/4/4
f 26/15/15 27/19/19 63/6/6
f 14/14/14 62/4/4 61/5/5
f 22/16/16 64/7/7 28/17/17
f 21/12/12 65/3/3 64/7/7
f 64/7/7 63/6/6 27/19/19
f 66/20/20 67/23/23 70/21/21
f 67/23/23 68/29/29 71/24/24
f 69/22/22 70/21/21 73/25/25
f 70/21/21 71/24/24 74/27/27
f 1/18/18 28/17/17 66/20/20
f 28/17/17 27/19/19 67/23/23
f 27/19/19 26/15/15 68/29/29
f 26/15/15 2/13/13 25/30/30
f 68/29/29 25/30/30 24/31/31
f 71/24/24 24/31/31 23/32/32
f 74/27/27 23/32/32 4/33/33
f 73/25/25 74/27/27 31/34/34
f 72/26/26 73/25/25 30/35/35
f 19/37/37 72/26/26 29/36/36
f 18/39/39 69/22/22 72/26/26
f 17/28/28 66/20/20 69/22/22
f 75/40/40 76/43/40 79/41/40
f 76/43/40 77/52/40 80/44/40
f 78/42/40 79/41/40 82/45/40
f 79/41/40 80/44/40 83/47/40
f 8/48/41 44/50/43 75/40/40
f 44/50/43 45/51/44 76/43/40
f 45/51/44 46/53/45 77/52/40
f 46/53/45 9/119/111 43/54/46
f 77/52/40 43/54/46 42/55/47
f 80/44/40 42/55/47 41/56/48
f 83/47/40 41/56/48 5/38/38
f 82/45/40 83/47/40 29/36/36
f 81/46/40 82/45/40 30/35/35
f 38/57/49 81/46/40 31/34/34
f 39/58/50 78/42/40 81/46/40
f 40/49/42 75/40/40 78/42/40
f 85/59/51 88/63/55 87/60/52
f 86/62/54 89/65/57 88/63/55
f 88/63/55 91/66/58 90/64/56
f 89/65/57 92/72/64 91/66/58
f 3/8/8 35/67/59 84/61/53
f 35/67/59 36/68/60 85/59/51
f 36/68/60 37/69/61 86/62/54
f 37/69/61 7/105/97 49/70/62
f 49/70/62 48/71/63 89/65/57
f 48/71/63 47/73/65 92/72/64
f 47/73/65 6/114/106 34/74/66
f 92/72/64 34/74/66 33/75/67
f 91/66/58 33/75/67 32/76/68
f 90/64/56 32/76/68 2/13/13
f 87/60/52 90/64/56 14/14/14
f 84/61/53 87/60/52 15/10/10
f 93/77/69 94/80/72 97/78/70
f 94/80/72 95/85/77 98/81/73
f 96/79/71 97/78/70 100/82/74
f 97/78/70 98/81/73 101/84/76
f 5/38/38 41/56/48 93/77/69
f 41/56/48 42/55/47 94/80/72
f 42/55/47 43/54/46 95/85/77
f 43/54/46 9/119/111 52/86/78
f 95/85/77 52/86/78 51/87/79
f 98/81/73 51/87/79 50/88/80
f 101/84/76 50/88/80 10/89/81
f 100/82/74 101/84/76 11/90/82
f 99/83/75 100/82/74 12/91/83
f 17/28/28 99/83/75 13/92/84
f 18/39/39 96/79/71 99/83/75
f 19/37/37 93/77/69 96/79/71
f 102/93/85 103/96/88 106/94/86
f 103/96/88 104/101/93 107/97/89
f 105/95/87 106/94/86 109/98/90
f 106/94/86 107/97/89 110/100/92
f 1/18/18 13/92/84 102/93/85
f 13/92/84 12/91/83 103/96/88
f 12/91/83 11/90/82 104/101/93
f 11/90/82 10/89/81 55/102/94
f 104/101/93 55/102/94 54/103/95
f 107/97/89 54/103/95 53/104/96
f 110/100/92 53/104/96 7/105/97
f 109/98/90 110/100/92 37/69/61
f 108/99/91 109/98/90 36/68/60
f 20/9/9 108/99/91 35/67/59
f 21/12/12 105/95/87 108/99/91
f 22/16/16 102/93/85 105/95/87
f 112/106/98 115/110/102 114/107/99
f 113/109/101 116/112/104 115/110/102
f 115/110/102 118/113/105 117/111/103
f 116/112/104 119/117/109 118/113/105
f 32/76/68 111/108/100 25/30/30
f 33/75/67 112/106/98 111/108/100
f 34/74/66 113/109/101 112/106/98
f 6/114/106 58/115/107 113/109/101
f 58/115/107 57/116/108 116/112/104
f 57/116/108 56/118/110 119/117/109
f 56/118/110 8/48/41 40/49/42
f 119/117/109 40/49/42 39/58/50
f 118/113/105 39/58/50 38/57/49
f 117/111/103 38/57/49 4/33/33
f 114/107/99 117/111/103 23/32/32
f 111/108/100 114/107/99 24/31/31
f 44/50/43 8/48/41 56/118/110
f 56/118/110 57/116/108 55/102/94
f 57/116/108 58/115/107 55/102/94
f 58/115/107 6/114/106 54/103/95
f 6/114/106 47/73/65 53/104/96
f 47/73/65 48/71/63 7/105/97
f 48/71/63 49/70/62 7/105/97
f 7/105/97 53/104/96 47/73/65
f 53/104/96 54/103/95 6/114/106
f 54/103/95 55/102/94 58/115/107
f 55/102/94 10/89/81 45/51/44
f 10/89/81 50/88/80 46/53/45
f 10/89/81 46/53/45 45/51/44
f 50/88/80 51/87/79 46/53/45
f 44/50/43 56/118/110 45/51/44
f 52/86/78 9/119/111 46/53/45
f 51/87/79 52/86/78 46/53/45
