# Blender 4.3.0
# www.blender.org
mtllib Right_Aileron.mtl
o Right_Aileron_Cube.019
v 0.317475 3.824039 -5.450490
v 0.587769 3.965795 -5.445484
v 0.667242 3.874569 -5.453249
v 0.281044 4.045322 -5.432370
v 0.244786 3.827514 -5.448688
v 0.660480 3.864403 -3.559947
v 0.745434 3.767727 -3.567862
v 0.353864 3.950015 -3.546632
v 0.317606 3.732207 -3.562949
v 0.387885 3.723226 -3.564946
v 0.642302 3.889751 -4.031332
v 0.624125 3.915098 -4.502716
v 0.605947 3.940447 -4.974100
v 0.725886 3.794437 -4.039208
v 0.706338 3.821148 -4.510555
v 0.686790 3.847858 -4.981904
v 0.335659 3.973842 -4.018066
v 0.317454 3.997669 -4.489501
v 0.299249 4.021495 -4.960935
v 0.299401 3.756034 -4.034383
v 0.281196 3.779861 -4.505818
v 0.262991 3.803688 -4.977252
v 0.364998 4.026766 -5.435812
v 0.446105 4.007691 -5.439191
v 0.521441 3.987565 -5.442439
v 0.612469 3.858135 -5.453364
v 0.529694 3.844959 -5.452789
v 0.428251 3.833956 -5.451755
v 0.299303 3.824908 -5.450038
v 0.281130 3.825778 -5.449587
v 0.262958 3.826646 -5.449138
v 0.641325 3.942161 -5.448236
v 0.676540 3.917970 -5.450552
v 0.687315 3.894901 -5.452279
v 0.405417 3.863504 -5.449301
v 0.467507 3.899112 -5.447946
v 0.527487 3.932909 -5.446681
v 0.271980 3.990870 -5.436449
v 0.262915 3.936419 -5.440528
v 0.253851 3.881967 -5.444607
v 0.335077 3.798836 -4.979104
v 0.352680 3.773633 -4.507718
v 0.370283 3.748430 -4.036332
v 0.344799 3.895563 -3.550711
v 0.335735 3.841111 -3.554790
v 0.326670 3.786659 -3.558870
v 0.715550 3.838893 -3.562752
v 0.752582 3.812941 -3.565117
v 0.764874 3.788567 -3.566878
v 0.370316 3.725471 -3.564447
v 0.352746 3.727717 -3.563948
v 0.335176 3.729961 -3.563448
v 0.689992 3.751811 -3.567965
v 0.605455 3.740001 -3.567354
v 0.501519 3.730929 -3.566269
v 0.437251 3.930073 -3.550123
v 0.518002 3.909560 -3.553552
v 0.593410 3.887887 -3.556850
v 0.575418 3.912806 -4.028247
v 0.557425 3.937726 -4.499644
v 0.539433 3.962645 -4.971043
v 0.500028 3.934093 -4.024961
v 0.482054 3.958626 -4.496371
v 0.464079 3.983159 -4.967782
v 0.419187 3.954247 -4.021545
v 0.401124 3.978420 -4.492969
v 0.383061 4.002594 -4.964390
v 0.483202 3.756686 -4.037641
v 0.464885 3.782443 -4.509013
v 0.446568 3.808199 -4.980382
v 0.586514 3.766241 -4.038713
v 0.567575 3.792480 -4.510073
v 0.548634 3.818720 -4.981431
v 0.670612 3.778392 -4.039316
v 0.651231 3.804973 -4.510664
v 0.631850 3.831553 -4.982015
v 0.317121 3.754133 -4.034872
v 0.299067 3.778304 -4.506293
v 0.281013 3.802474 -4.977715
v 0.334842 3.752232 -4.035357
v 0.316938 3.776747 -4.506769
v 0.299034 3.801261 -4.978178
v 0.352562 3.750330 -4.035844
v 0.334809 3.775190 -4.507244
v 0.317056 3.800050 -4.978642
v 0.745484 3.815150 -4.038229
v 0.726095 3.841733 -4.509579
v 0.706705 3.868316 -4.980927
v 0.733572 3.839198 -4.036477
v 0.714561 3.865455 -4.507834
v 0.695550 3.891712 -4.979194
v 0.696994 3.864710 -4.034122
v 0.678437 3.890527 -4.505494
v 0.659881 3.916343 -4.976863
v 0.563492 3.886667 -5.450634
v 0.620591 3.879956 -5.452094
v 0.549841 3.868628 -5.451591
v 0.474802 3.863786 -5.450572
v 0.522333 3.891640 -5.449537
v 0.578985 3.917228 -5.448814
v 0.613104 3.900150 -5.450620
v 0.339590 3.976774 -5.439143
v 0.405673 3.962519 -5.441782
v 0.468746 3.947948 -5.444314
v 0.314126 3.926763 -5.442473
v 0.364799 3.917181 -5.444377
v 0.415037 3.907820 -5.446207
v 0.288570 3.876714 -5.445805
v 0.323186 3.871562 -5.446980
v 0.358984 3.866767 -5.448125
v 0.290185 3.967044 -4.965014
v 0.281120 3.912591 -4.969093
v 0.272056 3.858140 -4.973173
v 0.308390 3.943217 -4.493580
v 0.299325 3.888765 -4.497660
v 0.290261 3.834313 -4.501740
v 0.326594 3.919389 -4.022145
v 0.317530 3.864938 -4.026226
v 0.308466 3.810486 -4.030304
vn 0.2957 0.9545 0.0392
vn 0.2583 0.9652 0.0404
vn 0.3003 0.9531 0.0389
vn 0.2911 0.9559 0.0394
vn 0.2538 0.9664 0.0406
vn 0.2366 0.9708 0.0407
vn 0.2494 0.9675 0.0408
vn 0.2323 0.9718 0.0409
vn 0.3728 0.9272 0.0354
vn 0.2388 0.6479 0.7233
vn 0.2911 0.6307 0.7194
vn 0.3685 0.9290 0.0357
vn 0.3640 0.9307 0.0360
vn 0.2412 0.7112 -0.6603
vn 0.1869 0.7260 -0.6618
vn 0.1560 0.7321 -0.6631
vn 0.2281 0.9728 0.0411
vn 0.1402 0.7342 -0.6643
vn -0.5576 0.8276 0.0636
vn -0.5559 0.8288 0.0636
vn -0.5541 0.8300 0.0636
vn -0.4321 0.6446 0.6307
vn 0.1923 0.6558 0.7301
vn 0.2032 0.6417 0.7395
vn 0.0817 -0.9950 -0.0575
vn 0.1217 -0.9907 -0.0600
vn 0.1168 -0.9914 -0.0598
vn 0.0870 -0.9945 -0.0577
vn 0.1267 -0.9901 -0.0602
vn 0.2145 -0.9746 -0.0637
vn 0.2107 -0.9755 -0.0636
vn 0.2183 -0.9738 -0.0638
vn -0.0091 -0.7730 0.6344
vn 0.0656 -0.7476 0.6609
vn -0.0178 -0.9984 -0.0528
vn -0.0052 -0.9986 -0.0533
vn 0.0923 -0.9940 -0.0579
vn 0.0074 -0.9985 -0.0538
vn 0.0565 -0.6605 -0.7487
vn 0.0813 -0.6616 -0.7454
vn 0.1476 -0.6585 -0.7379
vn 0.3745 -0.6031 -0.7043
vn 0.5170 -0.8532 -0.0696
vn 0.5187 -0.8521 -0.0696
vn 0.5205 -0.8510 -0.0696
vn 0.1614 -0.7476 0.6442
vn 0.4108 -0.6864 0.6001
vn 0.0926 -0.7520 0.6526
vn -0.1078 -0.9931 -0.0468
vn -0.0880 -0.9949 -0.0484
vn -0.1079 -0.9930 -0.0475
vn -0.0880 -0.9950 -0.0476
vn -0.0683 -0.9964 -0.0492
vn -0.0880 -0.9949 -0.0492
vn -0.1079 -0.9930 -0.0483
vn -0.0683 -0.9964 -0.0500
vn -0.6410 -0.5248 0.5601
vn -0.0674 -0.3705 0.9264
vn -0.7957 -0.6057 -0.0002
vn -0.7896 -0.6136 -0.0008
vn -0.0683 -0.9965 -0.0485
vn -0.7835 -0.6214 -0.0014
vn -0.0505 -0.6597 -0.7499
vn -0.0505 -0.6597 -0.7498
vn -0.0504 -0.6597 -0.7498
vn -0.0008 -0.6756 -0.7373
vn -0.0944 -0.7047 0.7032
vn -0.0758 -0.7449 0.6629
vn 0.9870 -0.1529 -0.0492
vn 0.7580 0.6522 0.0056
vn 0.9881 -0.1457 -0.0489
vn 0.9859 -0.1601 -0.0496
vn 0.7597 0.6503 0.0054
vn 0.4972 0.8672 0.0278
vn 0.7614 0.6483 0.0052
vn 0.4943 0.8688 0.0280
vn 0.8099 -0.1476 0.5677
vn 0.7720 -0.0980 -0.6281
vn 0.5603 0.5283 -0.6380
vn 0.4913 0.8705 0.0283
vn 0.3379 0.6744 -0.6565
vn 0.3822 0.5926 0.7090
vn 0.5895 0.4548 0.6675
vn -0.0175 0.0654 -0.9977
vn -0.0181 0.0675 -0.9976
vn -0.0180 0.0676 -0.9976
vn -0.0188 0.0695 -0.9974
vn -0.0178 0.0661 -0.9977
vn -0.0182 0.0683 -0.9975
vn -0.0189 0.0703 -0.9973
vn -0.0191 0.0716 -0.9973
vn -0.0199 0.0725 -0.9972
vn -0.0202 0.0733 -0.9971
vn -0.0232 0.0782 -0.9967
vn -0.0224 0.0773 -0.9968
vn -0.0229 0.0780 -0.9967
vn -0.0226 0.0774 -0.9967
vn -0.0213 0.0755 -0.9969
vn -0.0220 0.0770 -0.9968
vn -0.0224 0.0778 -0.9967
vn -0.0209 0.0755 -0.9969
vn -0.4778 0.7121 -0.5145
vn -0.7174 0.1700 -0.6756
vn -0.0216 0.0759 -0.9969
vn -0.7171 0.1699 -0.6760
vn -0.6541 -0.4787 -0.5857
vn -0.7173 0.1699 -0.6757
vn -0.9859 0.1607 0.0462
vn -0.9190 0.1316 0.3718
vn -0.6776 0.0584 0.7331
vn -0.4758 0.0510 0.8781
vt 0.622976 0.661163
vt 0.630795 0.635754
vt 0.624505 0.635754
vt 0.624505 0.686573
vt 0.630331 0.661163
vt 0.635097 0.635754
vt 0.630795 0.686573
vt 0.635039 0.661163
vt 0.612407 0.635754
vt 0.628408 0.610344
vt 0.625000 0.610344
vt 0.609776 0.661163
vt 0.612407 0.686573
vt 0.625000 0.711982
vt 0.628408 0.711982
vt 0.631816 0.711982
vt 0.635097 0.686573
vt 0.635225 0.711982
vt 0.638633 0.686573
vt 0.638633 0.661163
vt 0.638633 0.635754
vt 0.638633 0.610344
vt 0.635225 0.610344
vt 0.631816 0.610344
vt 0.406250 0.635754
vt 0.437500 0.661163
vt 0.437500 0.635754
vt 0.406250 0.661163
vt 0.437500 0.686573
vt 0.468750 0.661163
vt 0.468750 0.635754
vt 0.468750 0.686573
vt 0.375000 0.610344
vt 0.406250 0.610344
vt 0.375000 0.635754
vt 0.375000 0.661163
vt 0.406250 0.686573
vt 0.375000 0.686573
vt 0.406250 0.711982
vt 0.437500 0.711982
vt 0.468750 0.711982
vt 0.500000 0.711982
vt 0.500000 0.686573
vt 0.500000 0.661163
vt 0.500000 0.635754
vt 0.468750 0.610344
vt 0.500000 0.610344
vt 0.437500 0.610344
vt 0.364775 0.635754
vt 0.368184 0.661163
vt 0.368184 0.635754
vt 0.364775 0.661163
vt 0.368184 0.686573
vt 0.371592 0.661163
vt 0.371592 0.635754
vt 0.371592 0.686573
vt 0.361367 0.610344
vt 0.364775 0.610344
vt 0.361367 0.635754
vt 0.361367 0.661163
vt 0.364775 0.686572
vt 0.361367 0.686573
vt 0.364775 0.711982
vt 0.368184 0.711982
vt 0.371592 0.711982
vt 0.375000 0.711982
vt 0.371592 0.610344
vt 0.368184 0.610344
vt 0.531064 0.661163
vt 0.561478 0.635754
vt 0.531122 0.635754
vt 0.531122 0.686573
vt 0.561014 0.661163
vt 0.589846 0.635754
vt 0.561479 0.686573
vt 0.588318 0.661163
vt 0.531250 0.610344
vt 0.531250 0.711982
vt 0.562500 0.711982
vt 0.589846 0.686573
vt 0.593750 0.711982
vt 0.593750 0.610344
vt 0.562500 0.610344
vt 0.527018 0.711982
vt 0.472982 0.711982
vt 0.453946 0.711982
vt 0.546054 0.711982
vt 0.441367 0.711982
vt 0.558633 0.711982
vt 0.567612 0.711982
vt 0.565908 0.711982
vt 0.434092 0.711982
vt 0.432388 0.711982
vt 0.436183 0.711982
vt 0.638633 0.711982
vt 0.569316 0.711982
vt 0.563817 0.711982
vt 0.430684 0.711982
vt 0.361367 0.711982
vt 0.569316 0.686573
vt 0.569316 0.661163
vt 0.430684 0.661163
vt 0.569316 0.635754
vt 0.430684 0.635754
vt 0.430684 0.686573
vt 0.430684 0.610344
vt 0.569316 0.610344
s 1
usemtl Fuselage
f 60/1/1 62/2/2 59/3/3
f 61/4/4 63/5/5 60/1/1
f 63/5/5 65/6/6 62/2/2
f 64/7/7 66/8/8 63/5/5
f 11/9/9 58/10/10 6/11/11
f 12/12/12 59/3/3 11/9/9
f 13/13/13 60/1/1 12/12/12
f 2/14/14 61/4/4 13/13/13
f 25/15/15 64/7/7 61/4/4
f 24/16/16 67/17/17 64/7/7
f 23/18/18 19/19/19 67/17/17
f 67/17/17 18/20/20 66/8/8
f 66/8/8 17/21/21 65/6/6
f 65/6/6 8/22/22 56/23/23
f 62/2/2 56/23/23 57/24/24
f 59/3/3 57/24/24 58/10/10
f 68/25/25 72/26/26 71/27/27
f 69/28/28 73/29/29 72/26/26
f 71/27/27 75/30/30 74/31/31
f 72/26/26 76/32/32 75/30/30
f 10/33/33 68/25/25 55/34/34
f 43/35/35 69/28/28 68/25/25
f 42/36/36 70/37/37 69/28/28
f 41/38/38 28/39/39 70/37/37
f 70/37/37 27/40/40 73/29/29
f 73/29/29 26/41/41 76/32/32
f 76/32/32 3/42/42 16/43/43
f 75/30/30 16/43/43 15/44/44
f 74/31/31 15/44/44 14/45/45
f 53/46/46 14/45/45 7/47/47
f 54/48/48 74/31/31 53/46/46
f 55/34/34 71/27/27 54/48/48
f 77/49/49 81/50/50 80/51/51
f 78/52/52 82/53/53 81/50/50
f 80/51/51 84/54/54 83/55/55
f 81/50/50 85/56/56 84/54/54
f 9/57/57 77/49/49 52/58/58
f 20/59/59 78/52/52 77/49/49
f 21/60/60 79/61/61 78/52/52
f 22/62/62 31/63/63 79/61/61
f 79/61/61 30/64/64 82/53/53
f 82/53/53 29/65/65 85/56/56
f 85/56/56 1/66/66 41/38/38
f 84/54/54 41/38/38 42/36/36
f 83/55/55 42/36/36 43/35/35
f 50/67/67 43/35/35 10/33/33
f 51/68/68 83/55/55 50/67/67
f 52/58/58 80/51/51 51/68/68
f 87/69/69 89/70/70 86/71/71
f 88/72/72 90/73/73 87/69/69
f 90/73/73 92/74/74 89/70/70
f 91/75/75 93/76/76 90/73/73
f 7/47/47 86/71/71 49/77/77
f 14/45/45 87/69/69 86/71/71
f 15/44/44 88/72/72 87/69/69
f 16/43/43 34/78/78 88/72/72
f 34/78/78 91/75/75 88/72/72
f 33/79/79 94/80/80 91/75/75
f 32/81/81 13/13/13 94/80/80
f 94/80/80 12/12/12 93/76/76
f 93/76/76 11/9/9 92/74/74
f 92/74/74 6/11/11 47/82/82
f 89/70/70 47/82/82 48/83/83
f 86/71/71 48/83/83 49/77/77
f 96/42/84 95/42/85 101/84/86
f 99/42/87 97/85/88 98/86/89
f 100/87/90 95/42/85 99/42/87
f 3/42/42 96/42/84 34/78/78
f 26/41/41 97/85/88 96/42/84
f 96/42/84 33/79/79 34/78/78
f 35/88/91 28/39/39 1/66/66
f 36/42/92 98/86/89 35/88/91
f 98/86/89 27/40/40 28/39/39
f 2/14/14 100/87/90 37/89/93
f 32/81/81 101/84/86 100/87/90
f 37/89/93 99/42/87 36/42/92
f 102/90/94 106/42/95 105/42/96
f 103/91/97 107/42/98 106/42/95
f 105/42/96 109/92/99 108/93/100
f 106/42/95 110/94/101 109/92/99
f 4/95/102 102/90/94 38/96/103
f 23/18/18 103/91/97 102/90/94
f 24/16/16 104/97/104 103/91/97
f 25/15/15 37/89/93 104/97/104
f 104/97/104 36/42/92 107/42/98
f 107/42/98 35/88/91 110/94/101
f 110/94/101 1/66/66 29/65/65
f 109/92/99 29/65/65 30/64/64
f 108/93/100 30/64/64 31/63/63
f 40/98/105 31/63/63 5/99/106
f 39/42/107 108/93/100 40/98/105
f 38/96/103 105/42/96 39/42/107
f 111/100/108 115/44/108 114/101/108
f 112/43/108 116/102/108 115/44/108
f 114/101/108 118/45/108 117/103/108
f 115/44/108 119/104/108 118/45/108
f 4/95/102 111/100/108 19/19/19
f 38/96/103 112/43/108 111/100/108
f 39/42/107 113/105/108 112/43/108
f 40/98/105 22/62/62 113/105/108
f 113/105/108 21/60/60 116/102/108
f 116/102/108 20/59/59 119/104/108
f 119/104/108 9/57/57 46/106/109
f 118/45/108 46/106/109 45/47/110
f 117/103/108 45/47/110 44/107/111
f 17/21/21 44/107/111 8/22/22
f 18/20/20 117/103/108 17/21/21
f 19/19/19 114/101/108 18/20/20
f 51/68/68 54/48/48 57/24/24
f 60/1/1 63/5/5 62/2/2
f 61/4/4 64/7/7 63/5/5
f 63/5/5 66/8/8 65/6/6
f 64/7/7 67/17/17 66/8/8
f 11/9/9 59/3/3 58/10/10
f 12/12/12 60/1/1 59/3/3
f 13/13/13 61/4/4 60/1/1
f 2/14/14 25/15/15 61/4/4
f 25/15/15 24/16/16 64/7/7
f 24/16/16 23/18/18 67/17/17
f 23/18/18 4/95/102 19/19/19
f 67/17/17 19/19/19 18/20/20
f 66/8/8 18/20/20 17/21/21
f 65/6/6 17/21/21 8/22/22
f 62/2/2 65/6/6 56/23/23
f 59/3/3 62/2/2 57/24/24
f 68/25/25 69/28/28 72/26/26
f 69/28/28 70/37/37 73/29/29
f 71/27/27 72/26/26 75/30/30
f 72/26/26 73/29/29 76/32/32
f 10/33/33 43/35/35 68/25/25
f 43/35/35 42/36/36 69/28/28
f 42/36/36 41/38/38 70/37/37
f 41/38/38 1/66/66 28/39/39
f 70/37/37 28/39/39 27/40/40
f 73/29/29 27/40/40 26/41/41
f 76/32/32 26/41/41 3/42/42
f 75/30/30 76/32/32 16/43/43
f 74/31/31 75/30/30 15/44/44
f 53/46/46 74/31/31 14/45/45
f 54/48/48 71/27/27 74/31/31
f 55/34/34 68/25/25 71/27/27
f 77/49/49 78/52/52 81/50/50
f 78/52/52 79/61/61 82/53/53
f 80/51/51 81/50/50 84/54/54
f 81/50/50 82/53/53 85/56/56
f 9/57/57 20/59/59 77/49/49
f 20/59/59 21/60/60 78/52/52
f 21/60/60 22/62/62 79/61/61
f 22/62/62 5/99/106 31/63/63
f 79/61/61 31/63/63 30/64/64
f 82/53/53 30/64/64 29/65/65
f 85/56/56 29/65/65 1/66/66
f 84/54/54 85/56/56 41/38/38
f 83/55/55 84/54/54 42/36/36
f 50/67/67 83/55/55 43/35/35
f 51/68/68 80/51/51 83/55/55
f 52/58/58 77/49/49 80/51/51
f 87/69/69 90/73/73 89/70/70
f 88/72/72 91/75/75 90/73/73
f 90/73/73 93/76/76 92/74/74
f 91/75/75 94/80/80 93/76/76
f 7/47/47 14/45/45 86/71/71
f 14/45/45 15/44/44 87/69/69
f 15/44/44 16/43/43 88/72/72
f 16/43/43 3/42/42 34/78/78
f 34/78/78 33/79/79 91/75/75
f 33/79/79 32/81/81 94/80/80
f 32/81/81 2/14/14 13/13/13
f 94/80/80 13/13/13 12/12/12
f 93/76/76 12/12/12 11/9/9
f 92/74/74 11/9/9 6/11/11
f 89/70/70 92/74/74 47/82/82
f 86/71/71 89/70/70 48/83/83
f 96/42/84 97/85/88 95/42/85
f 99/42/87 95/42/85 97/85/88
f 100/87/90 101/84/86 95/42/85
f 3/42/42 26/41/41 96/42/84
f 26/41/41 27/40/40 97/85/88
f 96/42/84 101/84/86 33/79/79
f 35/88/91 98/86/89 28/39/39
f 36/42/92 99/42/87 98/86/89
f 98/86/89 97/85/88 27/40/40
f 2/14/14 32/81/81 100/87/90
f 32/81/81 33/79/79 101/84/86
f 37/89/93 100/87/90 99/42/87
f 102/90/94 103/91/97 106/42/95
f 103/91/97 104/97/104 107/42/98
f 105/42/96 106/42/95 109/92/99
f 106/42/95 107/42/98 110/94/101
f 4/95/102 23/18/18 102/90/94
f 23/18/18 24/16/16 103/91/97
f 24/16/16 25/15/15 104/97/104
f 25/15/15 2/14/14 37/89/93
f 104/97/104 37/89/93 36/42/92
f 107/42/98 36/42/92 35/88/91
f 110/94/101 35/88/91 1/66/66
f 109/92/99 110/94/101 29/65/65
f 108/93/100 109/92/99 30/64/64
f 40/98/105 108/93/100 31/63/63
f 39/42/107 105/42/96 108/93/100
f 38/96/103 102/90/94 105/42/96
f 111/100/108 112/43/108 115/44/108
f 112/43/108 113/105/108 116/102/108
f 114/101/108 115/44/108 118/45/108
f 115/44/108 116/102/108 119/104/108
f 4/95/102 38/96/103 111/100/108
f 38/96/103 39/42/107 112/43/108
f 39/42/107 40/98/105 113/105/108
f 40/98/105 5/99/106 22/62/62
f 113/105/108 22/62/62 21/60/60
f 116/102/108 21/60/60 20/59/59
f 119/104/108 20/59/59 9/57/57
f 118/45/108 119/104/108 46/106/109
f 117/103/108 118/45/108 45/47/110
f 17/21/21 117/103/108 44/107/111
f 18/20/20 114/101/108 117/103/108
f 19/19/19 111/100/108 114/101/108
f 8/22/22 44/107/111 45/47/110
f 45/47/110 46/106/109 9/57/57
f 9/57/57 52/58/58 51/68/68
f 51/68/68 50/67/67 10/33/33
f 10/33/33 55/34/34 54/48/48
f 54/48/48 53/46/46 7/47/47
f 7/47/47 49/77/77 48/83/83
f 48/83/83 47/82/82 6/11/11
f 6/11/11 58/10/10 57/24/24
f 57/24/24 56/23/23 8/22/22
f 45/47/110 9/57/57 51/68/68
f 57/24/24 8/22/22 45/47/110
f 48/83/83 6/11/11 57/24/24
f 54/48/48 7/47/47 48/83/83
f 51/68/68 10/33/33 54/48/48
f 57/24/24 45/47/110 51/68/68
f 54/48/48 48/83/83 57/24/24
